<svg xmlns="http://www.w3.org/2000/svg" viewBox="0 0 1600 1000" preserveAspectRatio="xMidYMid slice" ><rect width="1600" height="1000" fill="#0d1b2a"/><g fill="none" stroke="#e0a458" stroke-width="3.2" opacity="1" stroke-linecap="round" stroke-linejoin="round"><path d="M1608.0,150.0 L1608.9,152.8 L1609.9,155.7 L1610.8,158.5"/><path d="M1605.0,165.0 L1603.6,167.7 L1602.3,170.4 L1600.4,172.6"/><path d="M1598.0,179.0 L1597.9,181.1 L1596.0,183.3 L1596.0,186.3"/><path d="M1593.6,194.4 L1593.0,197.1 L1593.0,200.1 L1593.0,203.1"/><path d="M1587.0,208.4 L1587.0,211.4 L1585.7,213.4 L1582.8,214.4"/><path d="M1577.7,219.9 L1576.8,222.7 L1575.8,225.6 L1575.3,228.3"/><path d="M1575.4,234.8 L1576.8,237.5 L1577.9,240.2 L1576.2,242.7"/><path d="M1572.0,250.4 L1572.0,253.4 L1572.0,255.0"/><path d="M1611.0,153.0 L1611.0,156.0 L1611.0,159.0 L1611.0,162.0"/><path d="M1611.0,171.0 L1611.0,174.0 L1611.0,177.0 L1611.0,180.0"/><path d="M1611.0,189.0 L1611.0,192.0 L1611.0,195.0 L1611.0,198.0"/><path d="M1611.0,207.0 L1611.0,210.0 L1611.0,213.0 L1611.0,216.0"/><path d="M1611.0,225.0 L1611.0,228.0 L1611.0,231.0 L1611.0,234.0"/><path d="M1611.0,243.0 L1611.0,246.0 L1611.0,249.0 L1611.0,252.0"/><path d="M1611.0,261.0 L1611.0,264.0 L1611.0,267.0 L1611.0,270.0"/><path d="M1611.0,279.0 L1611.0,282.0 L1611.0,285.0 L1611.0,288.0"/><path d="M1611.0,297.0 L1611.0,300.0 L1611.0,303.0"/><path d="M1611.0,150.0 L1611.0,147.0 L1611.0,144.0 L1611.0,141.0"/><path d="M1611.0,132.0 L1611.0,129.0 L1611.0,126.0 L1611.0,123.0"/><path d="M1611.0,114.0 L1611.0,111.0 L1611.0,108.0 L1611.0,105.0"/><path d="M1611.0,96.0 L1611.0,93.0 L1611.0,90.0 L1611.0,87.0"/><path d="M1611.0,78.0 L1611.0,75.0 L1611.0,72.0 L1611.0,69.0"/><path d="M1611.0,60.0 L1611.0,57.0 L1611.0,54.0 L1611.0,51.0"/><path d="M1611.0,42.0 L1611.0,39.0 L1611.0,36.0 L1611.0,33.0"/><path d="M1611.0,24.0 L1611.0,21.0 L1611.0,18.0 L1611.0,15.0"/><path d="M1611.0,6.0 L1611.0,3.0 L1611.0,0.0 L1611.0,-3.0"/><path d="M1611.0,-12.0 L1608.0,-12.0 L1605.0,-12.0 L1602.0,-12.0"/><path d="M1593.0,-12.0 L1590.0,-12.0 L1587.0,-12.0 L1584.0,-12.0"/><path d="M1575.0,-12.0 L1572.0,-12.0 L1569.0,-12.0 L1566.0,-12.0"/><path d="M1557.0,-12.0 L1554.0,-12.0 L1551.0,-12.0 L1548.0,-12.0"/><path d="M1539.0,-12.0 L1536.0,-12.0 L1533.0,-12.0 L1530.0,-12.0"/><path d="M1521.0,-12.0 L1518.0,-12.0 L1515.0,-12.0 L1512.0,-12.0"/><path d="M1503.0,-12.0 L1500.0,-12.0 L1497.0,-12.0 L1494.0,-12.0"/><path d="M1485.0,-12.0 L1482.0,-12.0 L1479.0,-12.0 L1476.0,-12.0"/><path d="M1467.0,-12.0 L1464.0,-12.0 L1461.0,-12.0 L1458.0,-12.0"/><path d="M1449.0,-12.0 L1446.0,-12.0 L1443.0,-12.0 L1440.0,-12.0"/><path d="M1431.0,-12.0 L1428.0,-12.0 L1425.0,-12.0 L1422.0,-12.0"/><path d="M1413.0,-12.0 L1410.0,-12.0 L1407.0,-12.0 L1404.0,-12.0"/><path d="M1395.0,-12.0 L1392.0,-12.0 L1389.0,-12.0 L1386.0,-12.0"/><path d="M1377.0,-12.0 L1374.0,-12.0 L1371.0,-12.0 L1368.0,-12.0"/><path d="M1359.0,-12.0 L1356.0,-12.0 L1353.0,-12.0 L1350.0,-12.0"/><path d="M1341.0,-12.0 L1338.0,-12.0 L1335.0,-12.0 L1332.0,-12.0"/><path d="M1323.0,-12.0 L1320.0,-12.0 L1317.0,-12.0 L1314.0,-12.0"/><path d="M1305.0,-12.0 L1302.0,-12.0 L1299.0,-12.0 L1296.0,-12.0"/><path d="M1287.0,-12.0 L1284.0,-12.0 L1281.0,-12.0 L1278.0,-12.0"/><path d="M1269.0,-12.0 L1266.0,-12.0 L1263.0,-12.0 L1260.0,-12.0"/><path d="M1251.0,-12.0 L1248.0,-12.0 L1245.0,-12.0 L1242.0,-12.0"/><path d="M1233.0,-12.0 L1230.0,-12.0 L1227.0,-12.0 L1224.0,-12.0"/><path d="M1215.0,-12.0 L1212.0,-12.0 L1209.0,-12.0 L1206.0,-12.0"/><path d="M1197.0,-12.0 L1194.0,-12.0 L1191.0,-12.0 L1188.0,-12.0"/><path d="M1572.0,255.0 L1569.0,255.0 L1566.0,255.0 L1564.7,257.7"/><path d="M1558.3,263.4 L1555.7,264.9 L1553.2,266.5 L1550.7,268.2"/><path d="M1543.9,265.9 L1542.0,264.0"/><path d="M1574.7,260.4 L1573.4,262.6 L1572.0,264.0"/><path d="M1575.0,264.0 L1578.0,264.0 L1579.7,266.5 L1581.3,269.0"/><path d="M1588.2,273.0 L1590.0,273.0"/><path d="M1572.0,264.0 L1574.7,265.3 L1577.4,266.7 L1579.6,268.6"/><path d="M1587.7,272.2 L1590.0,273.0"/><path d="M1592.1,275.1 L1594.8,276.0 L1596.0,277.8 L1596.0,280.8"/><path d="M1596.0,289.8 L1597.5,292.0 L1600.0,293.6 L1602.5,295.3"/><path d="M1607.7,302.3 L1610.2,303.0 L1611.0,303.0"/><path d="M1611.0,306.0 L1611.0,309.0 L1611.0,312.0 L1611.0,315.0"/><path d="M1611.0,324.0 L1611.0,327.0 L1611.0,330.0 L1611.0,333.0"/><path d="M1611.0,342.0 L1611.0,345.0 L1611.0,348.0 L1611.0,351.0"/><path d="M1611.0,360.0 L1611.0,363.0 L1611.0,366.0 L1611.0,369.0"/><path d="M1611.0,378.0 L1611.0,381.0 L1611.0,384.0 L1611.0,387.0"/><path d="M1611.0,396.0 L1611.0,399.0"/><path d="M586.7,-9.3 L585.3,-6.6 L585.0,-6.0"/><path d="M594.0,-12.0 L597.0,-12.0 L600.0,-12.0 L603.0,-12.0"/><path d="M612.0,-12.0 L615.0,-12.0 L618.0,-12.0 L621.0,-12.0"/><path d="M585.0,-12.0 L585.0,-9.0 L585.0,-6.0"/><path d="M585.0,-3.0 L585.0,0.0 L585.0,3.0 L585.0,6.0"/><path d="M576.0,6.0 L573.0,6.0 L570.0,6.0 L567.0,6.0"/><path d="M562.0,13.5 L562.2,15.0 L565.2,15.0 L568.2,15.0"/><path d="M564.1,18.0 L564.0,20.9 L564.0,21.0"/><path d="M561.6,22.8 L559.2,24.6 L556.8,26.4 L554.4,28.2"/><path d="M547.0,33.3 L544.5,35.0 L543.0,36.0"/><path d="M561.9,23.1 L559.8,25.2 L557.6,27.4 L555.5,29.5"/><path d="M547.6,33.7 L544.9,35.0 L543.0,36.0"/><path d="M540.0,36.4 L537.0,36.7 L534.1,37.1 L531.1,37.5"/><path d="M522.2,38.6 L519.2,39.0 L516.3,39.7 L513.4,40.4"/><path d="M504.7,41.1 L501.9,40.0 L499.2,38.9 L496.4,37.7"/><path d="M487.9,37.4 L485.1,38.3 L483.0,39.0"/><path d="M483.0,39.0 L480.9,41.1 L478.8,43.2 L476.6,45.4"/><path d="M470.5,51.9 L469.2,54.6 L467.9,57.3 L466.5,60.0"/><path d="M465.9,68.5 L466.4,71.5 L466.9,74.5 L467.4,77.4"/><path d="M462.6,81.0 L462.0,81.0"/><path d="M483.0,39.0 L480.9,41.1 L478.8,43.2 L476.6,45.4"/><path d="M470.8,52.2 L469.0,54.6 L467.2,57.0 L465.4,59.4"/><path d="M465.0,68.3 L465.7,71.2 L466.7,74.0 L467.6,76.8"/><path d="M459.9,83.1 L459.0,84.0"/><path d="M459.0,84.0 L461.5,85.7 L464.0,87.3 L466.5,89.0"/><path d="M459.0,84.0 L461.1,86.1 L463.2,88.2 L465.4,90.4"/><path d="M463.3,90.6 L462.0,90.0"/><path d="M460.3,92.5 L458.7,95.0 L457.0,97.5 L456.5,100.1"/><path d="M462.2,106.3 L465.0,107.4 L467.8,108.5 L470.6,109.6"/><path d="M468.7,111.0 L465.7,111.0 L463.4,112.6 L461.2,114.8"/><path d="M461.6,122.2 L463.5,124.5 L465.6,126.6 L467.7,128.7"/><path d="M468.6,133.2 L466.0,134.5 L465.0,135.0"/><path d="M465.0,135.0 L463.5,137.6 L461.9,140.1 L460.4,142.7"/><path d="M455.6,150.3 L453.3,152.2 L450.9,154.1 L448.6,155.9"/><path d="M441.5,161.6 L441.0,162.0"/><path d="M465.0,135.0 L463.0,137.3 L461.1,139.6 L459.1,141.8"/><path d="M453.3,148.7 L451.3,150.9 L449.4,153.2 L447.4,155.5"/><path d="M441.1,161.9 L441.0,162.0"/><path d="M438.3,163.7 L435.6,162.3 L435.0,162.0"/><path d="M435.0,162.0 L435.0,165.0 L435.0,168.0 L435.0,171.0"/><path d="M437.2,179.7 L437.9,182.6 L438.6,185.6 L439.4,188.5"/><path d="M435.0,165.0 L435.0,168.0 L435.4,171.0 L435.7,174.0"/><path d="M436.9,182.9 L437.2,185.9 L437.6,188.8 L438.0,191.8"/><path d="M442.9,199.3 L444.0,201.0"/><path d="M445.9,206.7 L446.8,209.5 L447.0,210.0"/><path d="M442.7,198.3 L441.3,195.6 L441.0,195.0"/><path d="M450.1,215.1 L451.6,217.7 L453.2,220.3 L454.7,222.9"/><path d="M461.4,228.6 L463.9,230.3 L465.0,231.0"/><path d="M450.6,214.8 L452.4,217.2 L454.2,219.6 L456.0,222.0"/><path d="M462.4,228.4 L464.5,230.5 L465.0,231.0"/><path d="M465.0,231.0 L468.0,231.0 L471.0,231.0 L474.0,231.0"/><path d="M480.4,237.4 L482.5,239.5 L483.0,242.3 L483.0,245.3"/><path d="M476.3,248.2 L475.3,251.0 L474.4,253.8 L472.3,255.6"/><path d="M465.9,258.9 L468.0,261.0 L470.2,263.2 L471.4,265.8"/><path d="M473.6,274.5 L474.0,276.0"/><path d="M477.3,281.0 L479.0,283.5 L480.1,286.2 L480.5,289.2"/><path d="M481.5,298.1 L481.8,301.1 L482.1,304.1 L482.4,307.0"/><path d="M483.4,316.0 L483.8,319.0 L484.1,322.0 L484.4,324.9"/><path d="M485.4,333.9 L485.8,336.9 L486.0,339.0"/><path d="M476.7,281.4 L478.0,284.0 L479.4,286.7 L480.0,289.6"/><path d="M480.0,298.6 L480.2,301.6 L480.7,304.5 L481.2,307.5"/><path d="M482.5,316.4 L483.0,319.4 L483.4,322.3 L483.9,325.3"/><path d="M485.3,334.2 L485.7,337.1 L486.0,339.0"/><path d="M486.0,342.0 L486.0,345.0 L486.0,348.0 L486.0,351.0"/><path d="M486.0,360.0 L484.3,362.5 L482.7,365.0 L481.0,367.5"/><path d="M476.0,375.0 L474.4,377.5 L474.0,378.0"/><path d="M474.0,378.0 L471.0,378.0 L468.0,378.0 L465.0,378.0"/><path d="M462.0,385.8 L462.0,387.0"/><path d="M474.0,378.0 L471.2,378.9 L468.3,379.9 L465.5,380.8"/><path d="M465.1,392.1 L466.6,394.7 L468.2,397.3 L469.7,399.9"/><path d="M476.8,404.9 L479.8,405.0 L480.0,405.0"/><path d="M464.7,392.4 L466.0,395.0 L467.4,397.7 L469.1,400.1"/><path d="M476.1,405.0 L479.1,405.0 L480.0,405.0"/><path d="M480.9,407.8 L481.9,410.7 L482.8,413.5 L485.5,414.0"/><path d="M493.1,416.2 L494.5,418.9 L496.8,420.0 L499.8,420.0"/><path d="M506.5,425.5 L509.3,426.0 L512.3,426.0 L515.3,426.0"/><path d="M521.4,421.2 L522.0,418.4 L522.0,415.4 L523.6,414.0"/><path d="M520.4,407.9 L518.6,405.5 L516.8,403.1 L517.6,402.0"/><path d="M526.1,404.1 L528.8,405.4 L531.5,406.7 L534.2,408.1"/><path d="M542.2,412.1 L544.9,413.5 L547.6,414.8 L550.3,416.1"/><path d="M557.0,422.0 L559.4,422.3 L562.1,420.9 L564.8,419.6"/><path d="M571.8,419.6 L573.4,422.1 L575.1,424.6 L577.2,425.4"/><path d="M584.6,425.6 L583.0,427.3 L580.5,429.0 L578.0,430.7"/><path d="M576.0,438.6 L576.4,441.4 L578.5,443.5 L576.9,445.0"/><path d="M577.6,447.0 L580.6,447.0 L583.6,447.0 L586.6,447.0"/><path d="M594.4,448.6 L595.1,451.5 L595.9,454.4 L596.6,457.3"/><path d="M603.5,462.2 L606.2,463.6 L608.9,464.9 L609.0,467.8"/><path d="M611.0,476.0 L613.1,478.1 L615.3,480.3 L617.4,482.4"/><path d="M619.6,491.0 L620.2,493.9 L620.8,496.8 L620.2,499.6"/><path d="M616.2,507.7 L615.3,510.3 L617.4,512.4 L618.8,515.0"/><path d="M622.1,523.4 L623.3,526.2 L624.7,528.7 L626.8,530.8"/><path d="M630.3,538.5 L630.7,541.5 L631.2,544.4 L631.7,547.4"/><path d="M633.0,556.3 L633.0,559.3 L633.0,562.3 L633.0,565.3"/><path d="M634.2,574.1 L635.0,577.0 L635.8,579.9 L636.6,582.8"/><path d="M639.1,591.4 L640.1,594.3 L641.0,597.1 L642.0,600.0"/><path d="M644.5,608.6 L645.3,611.5 L646.1,614.4 L646.9,617.3"/><path d="M648.0,626.1 L648.0,629.1 L648.0,632.1 L648.0,635.1"/><path d="M652.3,642.6 L654.9,644.0 L657.0,645.7 L657.0,648.7"/><path d="M658.3,655.7 L656.1,657.9 L654.0,660.0 L651.9,662.1"/><path d="M654.1,670.1 L655.4,672.8 L656.6,675.5 L657.8,678.3"/><path d="M661.4,686.5 L662.7,689.2 L664.5,691.5 L666.8,693.5"/><path d="M674.5,698.1 L677.1,699.7 L679.7,701.2 L682.2,702.7"/><path d="M690.0,707.4 L692.5,708.9 L695.1,710.5 L697.1,712.6"/><path d="M702.1,720.0 L705.1,719.4 L708.0,718.8 L711.0,718.2"/><path d="M719.0,715.0 L721.6,714.0 L724.6,714.0 L727.3,714.9"/><path d="M734.8,719.9 L735.0,722.8 L735.0,725.8 L735.0,728.8"/><path d="M736.5,737.3 L738.2,739.8 L739.9,742.3 L740.2,744.5"/><path d="M732.7,749.5 L734.1,750.0 L737.1,750.0 L740.1,750.0"/><path d="M748.7,752.6 L748.3,753.0 L745.3,753.0 L742.3,753.0"/><path d="M733.4,753.9 L730.5,754.5 L727.6,755.1 L724.6,755.7"/><path d="M720.3,762.5 L721.9,765.1 L723.5,767.6 L725.1,770.2"/><path d="M729.9,777.8 L731.5,780.4 L733.1,782.9 L734.7,785.4"/><path d="M742.1,789.0 L744.0,790.1 L744.0,792.0"/><path d="M744.0,792.0 L745.8,794.4 L747.6,796.8 L749.4,799.2"/><path d="M754.1,806.8 L755.2,809.6 L756.3,812.4 L757.5,815.1"/><path d="M761.2,823.3 L762.0,825.0"/><path d="M744.0,792.0 L745.5,794.6 L747.1,797.1 L748.6,799.7"/><path d="M753.1,807.5 L753.9,810.4 L754.6,813.3 L755.3,816.2"/><path d="M760.3,823.3 L762.0,825.0"/><path d="M762.0,825.0 L760.7,827.7 L759.3,830.4 L759.6,833.2"/><path d="M761.7,842.0 L762.0,843.0"/><path d="M762.0,843.0 L759.6,841.2 L757.2,839.4 L754.8,837.6"/><path d="M747.0,834.0 L744.0,834.0 L741.0,834.0 L738.0,834.0"/><path d="M730.4,837.8 L728.1,839.8 L725.8,841.7 L723.5,843.6"/><path d="M716.5,849.3 L714.0,851.0 L711.5,852.6 L709.0,854.3"/><path d="M700.6,852.5 L698.1,851.1 L696.0,849.0 L693.9,846.9"/><path d="M686.5,843.0 L683.9,843.5 L683.1,846.4 L682.4,849.3"/><path d="M678.8,857.2 L676.9,856.4 L675.3,853.9 L673.6,851.4"/><path d="M668.9,843.8 L667.3,841.2 L665.8,838.6 L664.2,836.0"/><path d="M656.4,834.0 L653.4,833.7 L650.8,832.4 L648.1,831.0"/><path d="M648.0,822.1 L645.1,822.0 L645.0,819.1 L642.2,818.1"/><path d="M634.9,813.8 L633.6,811.2 L631.3,810.0 L628.3,810.0"/><path d="M624.6,802.7 L624.0,799.8 L624.0,796.8 L623.1,794.1"/><path d="M762.0,843.0 L759.0,843.0 L756.3,841.7 L753.6,840.3"/><path d="M748.4,841.4 L747.4,841.0 L748.5,843.8 L749.6,846.5"/><path d="M753.0,854.9 L753.0,855.0"/><path d="M757.2,859.2 L759.4,861.4 L761.5,863.5 L763.6,865.6"/><path d="M770.5,871.2 L773.2,872.6 L774.0,873.0"/><path d="M757.6,858.9 L759.8,860.9 L762.1,862.8 L764.4,864.8"/><path d="M771.2,870.6 L773.5,872.6 L774.0,873.0"/><path d="M774.0,873.0 L777.0,873.0 L780.0,873.0 L783.0,873.0"/><path d="M792.0,873.0 L795.0,873.0"/><path d="M774.0,873.0 L771.0,873.0 L768.0,873.0 L765.0,873.0"/><path d="M756.0,873.0 L753.0,873.0"/><path d="M792.0,873.0 L789.0,873.0 L786.0,873.0 L783.0,873.0"/><path d="M774.0,873.0 L771.0,873.0 L768.0,873.0 L765.0,873.0"/><path d="M756.0,873.0 L753.0,873.0"/><path d="M798.0,873.0 L796.7,870.3 L795.3,867.6 L795.0,864.7"/><path d="M795.0,855.7 L796.9,853.7 L799.4,852.1 L801.9,850.4"/><path d="M802.6,844.4 L804.0,844.0 L804.7,845.3 L806.8,843.2"/><path d="M810.2,834.9 L811.4,832.1 L812.5,829.3 L813.0,826.4"/><path d="M813.0,817.4 L813.0,814.4 L813.0,811.4 L813.0,808.4"/><path d="M813.0,799.4 L813.0,796.4 L813.0,793.4 L813.0,790.4"/><path d="M814.2,781.5 L814.7,778.6 L815.2,775.6 L815.7,772.6"/><path d="M821.2,765.8 L820.3,764.2 L817.7,762.8 L817.0,761.4"/><path d="M824.4,756.4 L826.3,754.1 L828.0,751.6 L829.6,749.1"/><path d="M835.6,742.4 L837.5,740.1 L838.8,737.4 L840.1,734.7"/><path d="M843.8,731.5 L844.8,734.3 L845.7,737.2 L848.1,738.0"/><path d="M849.0,746.1 L849.0,749.1 L849.0,752.1 L850.5,754.5"/><path d="M855.0,761.6 L855.0,764.6 L855.0,767.6 L855.0,770.6"/><path d="M861.1,777.1 L863.2,779.2 L865.4,781.4 L867.0,783.7"/><path d="M867.0,792.7 L867.0,795.7 L867.2,798.6 L868.4,801.4"/><path d="M871.7,809.8 L872.8,812.6 L873.0,815.5 L873.0,818.5"/><path d="M870.5,826.9 L871.3,829.3 L873.4,831.4 L875.5,833.5"/><path d="M876.1,839.9 L874.0,842.0 L872.3,844.4 L870.9,847.1"/><path d="M873.1,855.2 L874.4,857.8 L875.8,860.5 L877.4,863.1"/><path d="M882.6,869.7 L885.3,868.4 L888.0,867.0 L885.9,869.1"/><path d="M887.8,876.8 L889.6,879.2 L891.4,881.6 L893.2,884.0"/><path d="M896.4,892.3 L898.1,894.5 L900.9,895.6 L903.7,896.7"/><path d="M912.0,900.1 L913.0,902.9 L913.9,905.7 L914.9,908.6"/><path d="M923.2,911.4 L926.1,912.2 L929.0,913.0 L931.9,913.8"/><path d="M931.8,917.1 L929.1,918.5 L926.4,919.8 L923.7,921.1"/><path d="M919.8,925.8 L922.0,928.0 L924.0,930.1 L922.8,932.9"/><path d="M919.5,941.3 L918.4,944.0 L918.0,945.0"/><path d="M920.1,947.1 L921.0,948.0"/><path d="M918.0,948.0 L921.0,948.0"/><path d="M924.3,953.0 L926.0,955.5 L927.0,958.2 L927.0,961.2"/><path d="M927.5,970.1 L928.9,972.7 L930.2,975.4 L931.6,978.1"/><path d="M938.5,982.8 L941.3,983.8 L944.2,984.7 L947.0,985.7"/><path d="M953.1,982.7 L955.0,980.5 L957.7,979.3 L960.4,978.0"/><path d="M968.6,974.3 L971.3,973.0 L974.1,971.8 L976.8,970.5"/><path d="M985.0,966.8 L987.7,965.5 L990.4,964.3 L993.2,963.0"/><path d="M1001.3,959.3 L1004.1,958.0 L1006.8,956.8 L1009.5,955.5"/><path d="M1017.7,951.8 L1020.4,950.5 L1023.2,949.3 L1025.9,948.0"/><path d="M1033.1,942.7 L1035.5,940.9 L1037.9,939.1 L1040.3,937.3"/><path d="M1047.5,931.9 L1049.9,930.1 L1050.0,927.1 L1050.0,927.0"/><path d="M1050.0,927.0 L1052.1,929.1 L1053.0,928.2 L1054.8,927.0"/><path d="M1062.5,922.7 L1065.0,921.0 L1067.1,918.9 L1069.2,916.8"/><path d="M1050.9,929.8 L1051.9,932.7 L1052.8,935.5 L1051.9,938.2"/><path d="M1052.1,946.3 L1053.0,949.1 L1053.0,952.1 L1053.0,955.1"/><path d="M1058.0,962.0 L1060.1,964.1 L1062.3,966.3 L1064.4,968.4"/><path d="M1068.0,975.9 L1068.0,978.9 L1068.0,981.9 L1068.0,984.9"/><path d="M1068.0,993.9 L1068.4,996.8 L1069.7,999.5 L1071.1,1002.2"/><path d="M1073.9,1010.7 L1074.0,1011.0"/><path d="M1075.2,909.2 L1076.4,906.5 L1077.5,903.7 L1078.7,901.0"/><path d="M1082.3,892.7 L1083.0,891.0"/><path d="M1075.3,909.3 L1076.7,906.6 L1078.0,904.0 L1079.4,901.3"/><path d="M1083.0,893.1 L1083.0,891.0"/><path d="M1083.0,891.0 L1086.0,891.0 L1089.0,891.0 L1089.0,888.0"/><path d="M1091.1,885.9 L1090.8,883.8 L1089.0,881.5 L1089.5,879.2"/><path d="M1096.8,879.6 L1098.6,877.2 L1100.4,874.8 L1102.2,872.4"/><path d="M1107.6,865.2 L1109.4,862.8 L1111.2,860.4 L1113.0,858.0"/><path d="M1110.8,849.3 L1110.1,846.4 L1110.0,846.0"/><path d="M1097.0,879.7 L1098.9,877.4 L1100.9,875.2 L1102.8,872.9"/><path d="M1108.7,866.1 L1110.6,863.8 L1112.6,861.5 L1113.0,858.7"/><path d="M1111.3,849.9 L1110.4,847.1 L1110.0,846.0"/><path d="M1110.0,846.0 L1110.9,843.2 L1111.9,840.3 L1112.8,837.5"/><path d="M1116.0,829.7 L1115.4,826.9 L1114.1,824.2 L1112.5,821.7"/><path d="M1107.0,816.1 L1104.4,814.7 L1101.8,813.4 L1101.0,810.9"/><path d="M1095.7,805.4 L1096.2,803.2 L1098.7,801.5 L1101.2,799.9"/><path d="M1102.6,792.5 L1101.9,789.6 L1101.2,786.7 L1101.0,783.7"/><path d="M1101.4,774.8 L1101.9,771.8 L1102.4,768.9 L1102.8,765.9"/><path d="M1106.0,759.0 L1108.1,760.7 L1109.8,763.2 L1111.4,765.7"/><path d="M1115.0,773.9 L1115.9,776.7 L1118.4,778.2 L1121.1,779.5"/><path d="M1128.9,783.9 L1131.0,786.0 L1134.0,786.0 L1137.0,786.0"/><path d="M1138.8,789.0 L1141.8,789.0 L1144.8,789.0 L1147.6,788.2"/><path d="M1148.3,784.2 L1146.4,782.9 L1149.2,781.9 L1152.1,781.0"/><path d="M1155.0,774.1 L1157.9,774.0 L1160.0,776.0 L1162.7,777.0"/><path d="M1165.6,770.6 L1168.5,769.9 L1171.4,769.1 L1174.3,768.4"/><path d="M1182.0,765.0 L1185.0,765.0 L1188.0,765.0 L1190.7,763.6"/><path d="M1196.3,759.0 L1199.3,759.0 L1201.9,760.3 L1204.4,762.0"/><path d="M1212.0,764.5 L1212.5,762.0 L1214.6,761.6 L1212.5,759.5"/><path d="M1220.3,759.0 L1219.0,758.0 L1216.3,756.6 L1216.5,755.5"/><path d="M1225.0,752.5 L1227.6,751.2 L1229.7,749.7 L1227.6,747.6"/><path d="M1227.0,744.0 L1229.1,741.9 L1231.2,739.8 L1233.4,737.6"/><path d="M1222.8,739.8 L1221.2,737.5 L1222.6,734.9 L1223.9,732.2"/><path d="M1230.0,732.9 L1232.1,732.0 L1234.5,730.5 L1236.0,729.0"/><path d="M1231.2,748.2 L1233.0,749.5 L1233.0,746.5 L1233.0,743.5"/><path d="M1237.6,737.9 L1238.9,735.2 L1241.7,734.1 L1244.5,733.2"/><path d="M1242.7,732.0 L1239.7,732.0 L1239.0,732.0"/><path d="M1236.3,726.6 L1236.0,723.7 L1236.0,723.0"/><path d="M1236.9,729.9 L1236.0,729.0"/><path d="M1241.7,726.6 L1243.6,724.4 L1245.0,723.0"/><path d="M1233.9,726.9 L1234.2,724.8 L1236.0,723.0"/><path d="M1236.0,726.0 L1236.0,723.0"/><path d="M1242.3,728.4 L1244.3,729.0 L1247.3,729.0 L1248.0,729.0"/><path d="M1245.0,726.0 L1245.0,729.0 L1248.0,729.0"/><path d="M1251.0,729.0 L1254.0,729.0"/><path d="M1254.0,729.0 L1254.0,732.0 L1254.0,735.0 L1254.0,738.0"/><path d="M1254.0,747.0 L1254.0,750.0"/><path d="M1254.0,735.0 L1254.0,738.0 L1254.0,741.0 L1254.0,744.0"/><path d="M1254.0,747.0 L1254.0,750.0"/><path d="M1259.0,740.7 L1261.5,739.0 L1263.8,737.2 L1266.0,735.0"/><path d="M1265.7,729.7 L1267.9,727.8 L1270.4,726.1 L1272.8,724.4"/><path d="M1278.0,717.8 L1280.2,717.0 L1279.3,715.6 L1277.0,713.8"/><path d="M1269.9,708.1 L1267.6,706.3 L1266.0,705.0"/><path d="M1264.8,702.3 L1263.6,699.5 L1262.3,696.8 L1261.1,694.0"/><path d="M1257.5,685.8 L1256.3,683.1 L1255.0,680.3 L1253.7,677.7"/><path d="M1247.1,672.4 L1244.5,673.8 L1242.0,675.0"/><path d="M1264.7,702.3 L1263.3,699.6 L1262.0,697.0 L1260.6,694.3"/><path d="M1256.6,686.2 L1255.3,683.5 L1253.9,680.9 L1252.6,678.2"/><path d="M1245.5,675.0 L1242.5,675.0 L1242.0,675.0"/><path d="M1242.0,675.0 L1239.9,672.9 L1238.2,673.6 L1236.9,676.3"/><path d="M1230.3,670.7 L1227.6,669.3 L1225.2,670.4 L1222.9,672.3"/><path d="M1215.8,677.9 L1213.5,679.8 L1212.0,681.0"/><path d="M1230.9,669.9 L1228.4,669.8 L1225.7,671.1 L1223.3,672.7"/><path d="M1216.6,678.7 L1213.9,680.0 L1212.0,681.0"/><path d="M1212.0,681.0 L1209.1,680.2 L1206.2,679.4 L1203.3,678.6"/><path d="M1194.6,676.3 L1191.7,675.5 L1188.8,674.7 L1186.0,673.9"/><path d="M1212.0,681.0 L1209.1,680.2 L1206.2,679.4 L1203.3,678.5"/><path d="M1194.7,676.1 L1191.8,675.2 L1188.9,674.5 L1186.0,673.7"/><path d="M1179.0,672.0 L1177.9,669.2 L1176.8,666.4 L1175.7,663.6"/><path d="M1173.0,655.2 L1172.2,652.4 L1170.8,649.7 L1169.5,647.0"/><path d="M1163.9,640.5 L1161.3,639.1 L1158.6,637.8 L1155.9,636.4"/><path d="M1147.8,632.4 L1145.2,631.1 L1142.9,629.4 L1142.1,626.5"/><path d="M1139.9,617.8 L1138.0,615.5 L1136.1,613.1 L1134.2,610.8"/><path d="M1128.6,603.8 L1127.5,601.0 L1126.8,598.1 L1126.1,595.2"/><path d="M1123.9,586.5 L1123.1,583.6 L1122.4,580.7 L1121.4,577.9"/><path d="M1117.7,569.7 L1116.6,566.9 L1115.4,564.1 L1114.3,561.3"/><path d="M1108.2,555.6 L1107.0,553.3 L1105.8,553.2 L1104.0,554.5"/><path d="M1101.6,551.4 L1099.2,550.8 L1096.7,549.1 L1094.2,547.4"/><path d="M1087.5,541.5 L1085.4,539.4 L1083.2,537.2 L1082.1,534.5"/><path d="M1078.9,526.1 L1077.8,523.3 L1076.8,520.4 L1075.7,517.6"/><path d="M1070.4,514.8 L1067.8,515.8 L1065.6,513.6 L1065.0,510.9"/><path d="M1069.6,504.7 L1070.2,502.8 L1068.6,500.4 L1066.9,497.9"/><path d="M1065.7,493.9 L1063.0,492.5 L1060.3,491.2 L1057.7,489.8"/><path d="M1055.2,482.2 L1053.1,480.1 L1050.9,477.9 L1048.8,475.8"/><path d="M1044.6,468.0 L1043.5,465.2 L1042.4,462.5 L1041.3,459.7"/><path d="M1032.7,459.0 L1033.0,457.0 L1034.4,454.3 L1033.9,451.9"/><path d="M1026.3,447.2 L1023.8,445.6 L1021.3,443.9 L1018.8,442.2"/><path d="M1020.0,434.9 L1018.3,432.4 L1016.6,429.9 L1015.0,427.4"/><path d="M1014.0,418.7 L1014.0,417.0"/><path d="M1014.0,417.0 L1011.9,414.9 L1009.8,412.8 L1007.6,410.6"/><path d="M1004.3,402.8 L1003.8,399.8 L1003.4,396.8 L1003.0,393.9"/><path d="M1010.9,411.9 L1009.4,409.3 L1007.8,406.7 L1006.3,404.1"/><path d="M1003.7,395.6 L1003.1,392.7 L1002.5,389.7 L1002.0,387.0"/><path d="M1002.4,384.0 L1002.7,381.0 L1003.1,378.1 L1003.5,375.1"/><path d="M1004.6,366.2 L1005.0,363.2 L1005.9,360.3 L1006.8,357.5"/><path d="M1010.7,349.4 L1012.3,346.9 L1013.8,344.3 L1015.4,341.7"/><path d="M1020.2,334.1 L1021.9,331.7 L1023.0,330.0"/><path d="M1024.0,324.1 L1024.5,321.1 L1025.0,318.2 L1025.5,315.2"/><path d="M1031.8,312.0 L1034.8,312.0 L1035.0,312.0"/><path d="M1023.7,327.1 L1024.5,324.2 L1025.2,321.3 L1025.9,318.4"/><path d="M1030.4,312.0 L1033.4,312.0 L1035.0,312.0"/><path d="M1039.8,315.0 L1042.2,316.2 L1044.5,317.9 L1047.5,317.5"/><path d="M1056.4,316.2 L1059.4,315.8 L1062.3,315.4 L1065.3,315.0"/><path d="M1074.2,316.3 L1077.2,316.7 L1080.1,317.2 L1083.1,317.6"/><path d="M1091.1,314.6 L1093.6,313.0 L1095.0,312.0"/><path d="M1095.0,312.0 L1097.9,311.3 L1100.8,310.5 L1103.7,309.8"/><path d="M1112.5,307.6 L1115.4,306.9 L1118.3,306.2 L1119.0,303.7"/><path d="M1120.8,295.6 L1123.1,293.7 L1125.5,291.8 L1127.8,290.0"/><path d="M1134.8,284.3 L1137.2,282.5 L1139.5,280.6 L1141.8,278.7"/><path d="M1148.9,273.1 L1151.2,271.2 L1153.6,269.4 L1155.9,267.5"/><path d="M1162.9,261.9 L1164.0,259.4 L1162.6,257.1 L1160.1,255.4"/><path d="M1095.0,312.0 L1095.0,309.0"/><path d="M1157.9,249.6 L1160.9,250.2 L1163.8,250.8 L1166.8,251.4"/><path d="M1175.6,253.1 L1178.5,253.7 L1181.5,254.3 L1184.4,254.9"/><path d="M1192.5,258.8 L1195.2,260.1 L1197.0,261.0"/><path d="M1152.9,254.1 L1150.2,255.0 L1147.2,255.0 L1144.2,255.0"/><path d="M1135.2,255.0 L1132.2,255.0 L1129.2,255.0 L1126.2,255.0"/><path d="M1117.2,255.0 L1115.0,256.5 L1113.4,259.0 L1111.7,261.5"/><path d="M1104.7,261.3 L1102.0,260.0 L1099.3,258.7 L1096.9,259.1"/><path d="M1090.6,265.4 L1088.4,267.6 L1086.3,269.7 L1086.0,272.6"/><path d="M1086.4,276.0 L1083.4,276.0 L1080.4,276.0 L1077.4,276.0"/><path d="M1071.0,278.6 L1071.0,281.6 L1068.6,282.9 L1065.8,284.1"/><path d="M1057.5,287.4 L1054.6,287.7 L1051.7,286.9 L1048.8,286.2"/><path d="M1043.1,282.5 L1040.4,283.8 L1037.7,285.1 L1035.0,286.5"/><path d="M1027.9,285.8 L1025.4,287.4 L1022.9,289.1 L1020.4,290.8"/><path d="M1016.2,298.7 L1014.8,301.3 L1013.5,304.0 L1012.1,306.7"/><path d="M1008.1,314.7 L1008.0,315.0"/><path d="M1159.7,249.6 L1162.5,250.5 L1165.4,251.5 L1168.2,252.4"/><path d="M1176.8,255.0 L1179.8,255.0 L1182.8,255.0 L1185.8,255.0"/><path d="M1193.6,258.8 L1196.1,260.4 L1197.0,261.0"/><path d="M1002.3,316.9 L999.5,317.8 L997.2,316.2 L996.0,315.0"/><path d="M1002.6,317.7 L1000.0,317.0 L997.3,315.6 L996.0,315.0"/><path d="M991.8,310.8 L989.6,308.6 L987.5,306.5 L986.4,303.8"/><path d="M984.3,295.1 L984.0,292.1 L984.0,289.1 L984.0,286.1"/><path d="M980.2,279.8 L978.0,282.0 L979.3,279.4 L980.7,276.7"/><path d="M972.8,276.0 L972.0,273.8 L969.8,273.0 L969.7,270.9"/><path d="M970.2,264.0 L970.2,262.8 L971.5,261.0 L968.5,261.0"/><path d="M963.0,261.7 L963.0,258.7 L963.0,255.7 L962.0,257.0"/><path d="M957.0,259.4 L957.0,256.4 L957.0,253.4 L956.3,250.6"/><path d="M950.1,246.0 L947.1,246.0 L945.0,245.1 L944.1,243.0"/><path d="M941.7,240.3 L943.8,238.2 L944.0,238.0 L942.0,239.9"/><path d="M939.8,236.2 L939.0,235.1 L939.0,232.1 L939.0,231.0"/><path d="M939.0,231.0 L939.0,234.0 L936.0,234.0 L933.0,234.0"/><path d="M933.0,231.0 L935.1,228.9 L934.2,228.0 L933.0,226.2"/><path d="M939.0,221.0 L939.9,218.5 L942.6,217.2 L944.7,216.0"/><path d="M945.5,210.7 L947.2,208.2 L948.0,207.0"/><path d="M948.0,207.0 L951.0,207.0 L954.0,207.0 L956.9,206.3"/><path d="M965.6,204.1 L966.0,204.0"/><path d="M948.0,207.0 L951.0,206.5 L953.9,206.0 L956.9,205.5"/><path d="M965.8,204.0 L966.0,204.0"/><path d="M966.0,201.0 L966.0,198.0 L966.0,195.0"/><path d="M963.4,196.5 L960.8,198.0 L958.2,199.5 L955.6,201.0"/><path d="M947.8,205.4 L945.2,206.9 L945.0,207.0"/><path d="M961.0,198.3 L958.5,200.0 L957.0,201.0"/><path d="M950.4,204.3 L953.0,203.0 L955.7,201.6 L957.0,201.0"/><path d="M942.0,208.2 L942.0,205.2 L940.4,204.8 L937.7,206.1"/><path d="M931.0,212.0 L928.9,214.1 L926.7,216.2 L924.4,218.1"/><path d="M917.4,223.7 L915.0,225.6 L912.7,227.4 L912.0,228.0"/><path d="M910.1,233.7 L909.2,236.5 L909.0,237.0"/><path d="M914.7,229.3 L917.4,230.7 L918.0,231.0"/><path d="M909.0,237.0 L908.3,239.9 L907.5,242.8 L906.8,245.7"/><path d="M907.5,254.4 L908.4,257.3 L909.2,260.2 L910.0,263.1"/><path d="M909.0,237.0 L908.4,239.9 L907.8,242.9 L907.2,245.8"/><path d="M906.9,254.6 L907.8,257.4 L908.8,260.3 L909.7,263.1"/><path d="M914.8,270.9 L917.7,271.9 L920.5,272.8 L922.4,275.1"/><path d="M926.5,282.5 L924.4,284.6 L922.3,286.7 L920.8,289.2"/><path d="M919.6,298.1 L919.1,301.1 L918.7,304.0 L918.3,307.0"/><path d="M911.6,309.9 L910.2,312.6 L909.0,315.3 L909.0,318.3"/><path d="M911.8,326.6 L914.3,328.2 L917.0,329.5 L918.0,331.9"/><path d="M922.9,336.0 L924.0,337.9 L922.7,340.3 L921.4,342.4"/><path d="M924.0,350.4 L924.0,353.4 L924.0,356.4 L924.0,359.4"/><path d="M929.9,365.9 L930.6,368.8 L931.2,371.8 L931.7,374.7"/><path d="M934.8,382.8 L936.0,385.4 L936.0,388.4 L936.4,391.3"/><path d="M938.2,399.4 L935.5,400.7 L932.8,402.1 L930.2,403.4"/><path d="M927.0,410.5 L927.0,413.5 L927.0,416.5 L925.3,418.7"/><path d="M921.0,426.0 L921.0,429.0 L922.7,431.5 L924.3,434.0"/><path d="M924.5,441.3 L922.7,443.7 L920.9,446.1 L919.1,448.5"/><path d="M911.1,451.7 L908.1,452.5 L906.0,453.8 L906.0,456.8"/><path d="M905.4,465.6 L903.3,467.7 L903.0,468.0"/><path d="M900.1,467.3 L897.2,466.5 L894.3,465.8 L891.4,465.1"/><path d="M882.6,462.9 L879.7,462.2 L876.9,461.2 L874.1,460.0"/><path d="M865.8,456.7 L864.0,456.0"/><path d="M900.1,467.3 L897.1,466.7 L894.2,466.0 L891.3,465.4"/><path d="M882.5,463.4 L879.6,462.8 L876.6,462.1 L873.9,461.0"/><path d="M865.9,456.9 L864.0,456.0"/><path d="M864.0,456.0 L863.1,453.2 L862.1,450.3 L861.2,447.5"/><path d="M858.3,438.9 L858.0,438.0"/><path d="M864.0,453.0 L861.0,453.0 L861.0,450.0 L861.0,447.0"/><path d="M858.2,438.5 L858.0,438.0"/><path d="M858.0,435.0 L857.1,432.2 L856.1,429.3 L855.2,426.5"/><path d="M850.1,420.5 L849.0,420.0"/><path d="M850.3,417.3 L851.7,414.6 L852.0,414.0"/><path d="M851.1,417.9 L852.0,415.2 L852.0,414.0"/><path d="M855.0,420.0 L853.7,417.3 L852.3,414.6 L852.0,414.0"/><path d="M850.3,411.5 L848.7,409.0 L847.0,406.5 L845.2,404.2"/><path d="M844.9,396.4 L845.8,393.5 L844.9,390.8 L843.6,388.1"/><path d="M844.9,380.7 L843.9,377.8 L843.0,375.0 L844.8,372.6"/><path d="M850.2,365.4 L852.0,363.0 L852.5,360.0 L853.0,357.1"/><path d="M854.5,348.2 L855.0,345.2 L853.8,342.5 L852.4,339.8"/><path d="M844.4,336.5 L841.7,335.2 L839.1,333.6 L836.5,332.1"/><path d="M828.8,327.5 L827.6,325.0 L827.0,322.0 L826.4,319.1"/><path d="M825.0,310.2 L825.0,307.2 L825.0,304.2 L825.0,301.2"/><path d="M824.2,292.4 L822.9,289.7 L821.5,287.0 L820.2,284.4"/><path d="M821.8,276.3 L822.0,276.0"/><path d="M822.0,270.0 L822.0,267.0 L822.0,264.0 L822.0,261.0"/><path d="M822.0,270.0 L822.0,267.0 L822.0,264.0 L822.0,261.0"/><path d="M819.9,263.1 L819.0,262.2 L819.0,259.2 L819.0,256.2"/><path d="M814.2,253.8 L816.0,252.0"/><path d="M813.3,246.6 L813.0,243.7 L813.0,243.0"/><path d="M813.0,247.2 L813.0,244.2 L813.0,243.0"/><path d="M810.0,243.0 L807.0,243.0 L804.0,243.0 L801.0,243.0"/><path d="M798.2,234.5 L798.0,234.0"/><path d="M792.1,233.0 L789.1,232.5 L786.2,232.0 L783.2,231.5"/><path d="M774.2,231.0 L771.2,231.0 L771.0,231.0"/><path d="M792.1,232.8 L789.2,232.2 L786.2,231.6 L783.3,231.1"/><path d="M774.3,231.0 L771.3,231.0 L771.0,231.0"/><path d="M774.0,234.0 L777.0,234.0 L780.0,234.0"/><path d="M776.7,232.9 L779.5,233.8 L780.0,234.0"/><path d="M780.0,237.0 L777.0,237.0 L774.0,237.0"/><path d="M777.3,235.3 L774.6,236.7 L774.0,237.0"/><path d="M774.0,237.0 L771.9,239.1 L769.8,241.2 L767.6,243.4"/><path d="M761.3,248.3 L759.2,246.2 L757.0,244.0 L754.5,243.0"/><path d="M745.6,243.7 L742.9,245.0 L740.3,245.6 L737.6,244.3"/><path d="M729.5,240.3 L727.8,237.9 L726.2,235.4 L724.7,232.8"/><path d="M720.0,225.1 L717.4,223.6 L714.8,222.2 L712.2,220.7"/><path d="M704.3,216.4 L701.6,215.0 L699.0,213.5 L696.4,212.1"/><path d="M688.5,207.8 L686.7,205.7 L685.9,202.8 L685.2,199.9"/><path d="M681.5,191.9 L679.6,189.6 L677.8,187.2 L675.9,184.9"/><path d="M672.0,177.2 L672.0,174.2 L672.0,171.2 L672.0,168.2"/><path d="M664.0,165.0 L661.0,165.0 L660.0,163.0 L660.0,160.0"/><path d="M654.3,153.3 L653.2,150.6 L652.2,147.7 L651.3,144.9"/><path d="M645.0,139.6 L645.0,136.6 L645.0,133.6 L644.0,131.0"/><path d="M637.7,129.3 L636.3,126.6 L635.0,124.0 L633.6,121.3"/><path d="M638.4,114.6 L639.0,114.0"/><path d="M639.0,129.0 L639.0,126.0 L636.3,124.7 L633.6,123.3"/><path d="M637.1,115.9 L639.0,114.0"/><path d="M641.7,115.7 L644.4,114.3 L644.0,112.0 L642.6,109.3"/><path d="M644.4,100.8 L645.8,98.2 L647.9,96.1 L650.0,94.0"/><path d="M655.3,86.9 L656.4,84.1 L657.5,81.3 L658.6,78.5"/><path d="M657.7,70.3 L655.5,69.0 L654.0,70.5 L654.0,70.5"/><path d="M651.0,68.7 L650.7,66.0 L647.7,66.0 L644.7,66.0"/><path d="M642.1,65.0 L644.9,64.0 L647.8,63.1 L650.6,62.1"/><path d="M659.2,59.3 L662.0,58.3 L664.9,57.4 L666.0,57.0"/><path d="M666.0,57.0 L667.7,54.5 L669.3,52.0 L671.0,49.5"/><path d="M676.0,42.0 L677.6,39.5 L677.4,36.7 L676.7,33.8"/><path d="M668.7,51.6 L670.0,49.0 L671.4,46.3 L672.7,43.6"/><path d="M675.0,35.1 L675.0,32.1 L675.0,29.1 L675.0,27.0"/><path d="M669.9,24.9 L667.8,22.8 L665.5,20.8 L662.9,19.4"/><path d="M660.0,12.2 L657.7,10.4 L655.3,8.6 L652.8,6.9"/><path d="M645.5,1.7 L643.1,-0.1 L640.6,-1.8 L638.0,-3.2"/><path d="M629.3,-5.4 L626.4,-6.0 L624.0,-6.0"/><path d="M624.0,-9.0 L624.0,-12.0 L621.0,-12.0"/><path d="M624.0,-9.0 L621.9,-11.1 L621.0,-12.0"/><path d="M274.9,1005.3 L275.8,1002.5 L275.2,999.6 L274.3,996.8"/><path d="M275.2,988.5 L276.0,985.7 L276.0,982.7 L275.1,980.1"/><path d="M275.7,972.6 L273.8,971.3 L270.9,970.3 L268.1,969.4"/><path d="M259.1,969.0 L256.1,969.0 L254.2,967.3 L252.8,964.6"/><path d="M247.4,962.4 L245.7,964.9 L244.0,967.4 L241.9,969.0"/><path d="M238.0,965.0 L238.7,962.1 L239.5,959.2 L239.6,956.4"/><path d="M234.6,948.9 L232.1,948.0 L229.1,948.0 L226.1,948.0"/><path d="M219.0,946.1 L219.0,943.1 L219.0,940.1 L219.0,939.0"/><path d="M273.0,1011.0 L270.0,1011.0 L267.0,1011.0 L264.0,1011.0"/><path d="M255.0,1011.0 L252.0,1011.0 L249.0,1011.0 L246.0,1011.0"/><path d="M237.0,1011.0 L234.0,1011.0 L231.0,1011.0 L228.0,1011.0"/><path d="M219.0,1011.0 L216.0,1011.0 L213.0,1011.0 L210.0,1011.0"/><path d="M201.0,1011.0 L198.0,1011.0 L195.0,1011.0 L192.0,1011.0"/><path d="M183.0,1011.0 L180.0,1011.0 L177.0,1011.0 L174.0,1011.0"/><path d="M165.0,1011.0 L162.0,1011.0 L159.0,1011.0 L156.0,1011.0"/><path d="M147.0,1011.0 L144.0,1011.0 L141.0,1011.0 L138.0,1011.0"/><path d="M129.0,1011.0 L126.0,1011.0 L123.0,1011.0 L120.0,1011.0"/><path d="M111.0,1011.0 L108.0,1011.0 L105.0,1011.0 L102.0,1011.0"/><path d="M93.0,1011.0 L90.0,1011.0 L87.0,1011.0 L84.0,1011.0"/><path d="M75.0,1011.0 L72.0,1011.0 L69.0,1011.0 L66.0,1011.0"/><path d="M57.0,1011.0 L54.0,1011.0 L51.0,1011.0 L48.0,1011.0"/><path d="M39.0,1011.0 L36.0,1011.0 L33.0,1011.0 L30.0,1011.0"/><path d="M21.0,1011.0 L18.0,1011.0 L15.0,1011.0 L12.0,1011.0"/><path d="M3.0,1011.0 L0.0,1011.0 L-3.0,1011.0 L-6.0,1011.0"/><path d="M-12.0,1008.0 L-12.0,1005.0 L-12.0,1002.0 L-12.0,999.0"/><path d="M-12.0,990.0 L-12.0,987.0 L-12.0,984.0 L-12.0,981.0"/><path d="M-12.0,972.0 L-12.0,969.0 L-12.0,966.0 L-12.0,963.0"/><path d="M-12.0,954.0 L-12.0,951.0 L-12.0,948.0 L-12.0,945.0"/><path d="M-12.0,936.0 L-12.0,933.0 L-12.0,930.0 L-12.0,927.0"/><path d="M-12.0,918.0 L-12.0,915.0 L-12.0,912.0 L-12.0,909.0"/><path d="M-12.0,900.0 L-12.0,897.0 L-12.0,894.0 L-12.0,891.0"/><path d="M-12.0,882.0 L-12.0,879.0 L-12.0,876.0 L-12.0,873.0"/><path d="M-12.0,864.0 L-12.0,861.0 L-12.0,858.0 L-12.0,855.0"/><path d="M-12.0,846.0 L-12.0,843.0 L-12.0,840.0 L-12.0,837.0"/><path d="M-12.0,828.0 L-12.0,825.0 L-12.0,822.0 L-12.0,819.0"/><path d="M-12.0,810.0 L-12.0,807.0 L-12.0,804.0 L-12.0,801.0"/><path d="M-12.0,792.0 L-12.0,789.0 L-12.0,786.0 L-12.0,783.0"/><path d="M-12.0,774.0 L-12.0,771.0 L-12.0,768.0 L-12.0,765.0"/><path d="M-12.0,756.0 L-12.0,753.0 L-12.0,750.0 L-12.0,747.0"/><path d="M-12.0,738.0 L-12.0,735.0 L-12.0,732.0 L-12.0,729.0"/><path d="M-12.0,720.0 L-12.0,717.0 L-12.0,714.0 L-12.0,711.0"/><path d="M-12.0,702.0 L-12.0,699.0"/><path d="M273.0,1011.0 L276.0,1011.0 L279.0,1011.0 L282.0,1011.0"/><path d="M291.0,1011.0 L294.0,1011.0 L297.0,1011.0 L300.0,1011.0"/><path d="M309.0,1011.0 L312.0,1011.0 L315.0,1011.0 L318.0,1011.0"/><path d="M327.0,1011.0 L330.0,1011.0 L333.0,1011.0 L336.0,1011.0"/><path d="M345.0,1011.0 L348.0,1011.0 L351.0,1011.0 L354.0,1011.0"/><path d="M363.0,1011.0 L366.0,1011.0 L369.0,1011.0 L372.0,1011.0"/><path d="M381.0,1011.0 L384.0,1011.0 L387.0,1011.0 L390.0,1011.0"/><path d="M399.0,1011.0 L402.0,1011.0 L405.0,1011.0 L408.0,1011.0"/><path d="M417.0,1011.0 L420.0,1011.0 L423.0,1011.0 L426.0,1011.0"/><path d="M435.0,1011.0 L438.0,1011.0 L441.0,1011.0 L444.0,1011.0"/><path d="M453.0,1011.0 L456.0,1011.0 L459.0,1011.0 L462.0,1011.0"/><path d="M471.0,1011.0 L474.0,1011.0 L477.0,1011.0 L480.0,1011.0"/><path d="M489.0,1011.0 L492.0,1011.0 L495.0,1011.0 L498.0,1011.0"/><path d="M507.0,1011.0 L510.0,1011.0 L513.0,1011.0 L516.0,1011.0"/><path d="M219.0,939.0 L216.9,936.9 L214.8,934.8 L212.5,933.1"/><path d="M203.8,935.3 L201.0,936.0"/><path d="M219.0,939.0 L216.9,936.9 L214.2,936.0 L211.2,936.0"/><path d="M202.2,936.0 L201.0,936.0"/><path d="M198.9,938.1 L196.8,940.2 L194.6,942.4 L192.5,944.5"/><path d="M187.5,938.5 L184.7,937.6 L181.8,936.6 L178.9,936.0"/><path d="M169.9,936.0 L166.9,936.0 L163.9,936.0 L160.9,936.0"/><path d="M156.0,941.8 L153.4,943.2 L150.7,944.4 L147.9,945.6"/><path d="M139.7,949.2 L137.0,950.5 L134.2,951.7 L131.5,952.9"/><path d="M123.4,951.2 L120.4,951.0 L117.4,951.0 L114.4,951.0"/><path d="M107.1,947.1 L104.9,944.9 L102.8,942.8 L100.3,941.3"/><path d="M92.0,937.7 L89.3,936.5 L86.5,935.4 L83.8,934.2"/><path d="M78.3,927.6 L77.0,924.9 L75.6,922.3 L74.3,919.6"/><path d="M69.8,911.8 L68.2,909.3 L66.5,906.8 L65.7,904.0"/><path d="M64.2,895.1 L63.7,892.1 L63.2,889.2 L62.4,886.3"/><path d="M58.9,878.2 L56.5,876.4 L54.1,874.6 L51.7,872.8"/><path d="M44.1,868.1 L41.4,866.7 L38.8,865.4 L36.1,864.0"/><path d="M33.2,855.5 L33.0,852.6 L33.0,849.6 L33.0,846.6"/><path d="M33.0,837.6 L33.0,834.6 L33.0,831.6 L33.0,828.6"/><path d="M33.0,819.6 L33.5,816.6 L34.1,813.7 L34.7,810.7"/><path d="M35.0,802.1 L33.7,799.4 L32.4,796.7 L31.0,794.0"/><path d="M27.0,786.0 L27.0,783.0 L27.0,780.0 L27.0,777.0"/><path d="M27.0,768.0 L27.0,765.0"/><path d="M28.9,759.3 L29.8,756.5 L30.0,756.0"/><path d="M29.7,759.6 L30.0,756.7 L30.0,756.0"/><path d="M25.8,751.8 L23.6,749.6 L21.5,747.5 L21.0,747.0"/><path d="M21.0,747.0 L18.5,748.7 L16.0,750.3 L13.5,752.0"/><path d="M21.0,747.0 L18.6,748.8 L16.2,750.6 L13.8,752.4"/><path d="M6.9,753.9 L6.0,753.0"/><path d="M3.9,750.9 L1.8,748.8 L0.0,746.5 L0.0,743.5"/><path d="M-2.5,735.5 L-4.6,733.4 L-6.0,731.0 L-6.0,728.0"/><path d="M-6.0,719.0 L-6.0,717.0"/><path d="M-6.0,717.0 L-6.7,714.1 L-7.5,711.2 L-8.2,708.3"/><path d="M-11.5,700.0 L-12.0,699.0"/><path d="M-6.0,717.0 L-6.9,714.2 L-7.9,711.3 L-8.8,708.5"/><path d="M-11.7,699.9 L-12.0,699.0"/><path d="M-12.0,699.0 L-12.0,696.0 L-12.0,693.0 L-12.0,690.0"/><path d="M-12.0,681.0 L-12.0,678.0 L-12.0,675.0 L-12.0,672.0"/><path d="M-12.0,663.0 L-12.0,660.0 L-12.0,657.0 L-12.0,654.0"/><path d="M-12.0,645.0 L-12.0,642.0 L-12.0,639.0 L-12.0,636.0"/><path d="M-12.0,627.0 L-12.0,624.0 L-12.0,621.0 L-12.0,618.0"/><path d="M-12.0,609.0 L-12.0,606.0 L-12.0,603.0 L-12.0,600.0"/><path d="M-12.0,591.0 L-12.0,588.0 L-12.0,585.0 L-12.0,582.0"/><path d="M-12.0,573.0 L-12.0,570.0 L-12.0,567.0 L-12.0,564.0"/><path d="M-12.0,555.0 L-12.0,552.0 L-12.0,549.0 L-12.0,546.0"/><path d="M-12.0,537.0 L-12.0,534.0 L-12.0,531.0 L-12.0,528.0"/><path d="M-12.0,519.0 L-12.0,516.0 L-12.0,513.0 L-12.0,510.0"/><path d="M-12.0,501.0 L-12.0,498.0 L-12.0,495.0 L-12.0,492.0"/><path d="M-12.0,483.0 L-12.0,480.0 L-12.0,477.0 L-12.0,474.0"/><path d="M-12.0,465.0 L-12.0,462.0 L-12.0,459.0 L-12.0,456.0"/><path d="M-12.0,447.0 L-12.0,444.0 L-12.0,441.0 L-12.0,438.0"/><path d="M-12.0,429.0 L-12.0,426.0 L-12.0,423.0 L-12.0,420.0"/><path d="M-12.0,411.0 L-12.0,408.0 L-12.0,405.0 L-12.0,402.0"/><path d="M-12.0,393.0 L-12.0,390.0 L-12.0,387.0 L-12.0,384.0"/><path d="M-12.0,375.0 L-12.0,372.0 L-12.0,369.0 L-12.0,366.0"/><path d="M-12.0,357.0 L-12.0,354.0 L-12.0,351.0 L-12.0,348.0"/><path d="M-12.0,339.0 L-12.0,336.0 L-12.0,333.0 L-12.0,330.0"/><path d="M-12.0,321.0 L-12.0,318.0 L-12.0,315.0 L-12.0,312.0"/><path d="M-12.0,303.0 L-12.0,300.0 L-12.0,297.0 L-12.0,294.0"/><path d="M-12.0,285.0 L-12.0,282.0 L-12.0,279.0 L-12.0,276.0"/><path d="M-12.0,267.0 L-12.0,264.0 L-12.0,261.0 L-12.0,258.0"/><path d="M-12.0,249.0 L-12.0,246.0 L-12.0,243.0 L-12.0,240.0"/><path d="M-12.0,231.0 L-12.0,228.0 L-12.0,225.0 L-12.0,222.0"/><path d="M-12.0,213.0 L-12.0,210.0 L-12.0,207.0 L-12.0,204.0"/><path d="M-12.0,195.0 L-12.0,192.0 L-12.0,189.0 L-12.0,186.0"/><path d="M-12.0,177.0 L-12.0,174.0 L-12.0,171.0 L-12.0,168.0"/><path d="M-12.0,159.0 L-12.0,156.0 L-12.0,153.0 L-12.0,150.0"/><path d="M-12.0,141.0 L-12.0,138.0 L-12.0,135.0 L-12.0,132.0"/><path d="M-12.0,123.0 L-12.0,120.0 L-12.0,117.0 L-12.0,114.0"/><path d="M-12.0,105.0 L-12.0,102.0 L-12.0,99.0 L-12.0,96.0"/><path d="M-12.0,87.0 L-12.0,84.0 L-12.0,81.0 L-12.0,78.0"/><path d="M-12.0,69.0 L-12.0,66.0 L-12.0,63.0 L-12.0,60.0"/><path d="M-12.0,51.0 L-12.0,48.0 L-12.0,45.0 L-12.0,42.0"/><path d="M-12.0,33.0 L-12.0,30.0 L-12.0,27.0 L-12.0,24.0"/><path d="M-12.0,15.0 L-12.0,12.0 L-12.0,9.0 L-12.0,6.0"/><path d="M-12.0,-3.0 L-12.0,-6.0 L-12.0,-9.0 L-12.0,-12.0"/><path d="M-3.0,-12.0 L0.0,-12.0 L3.0,-12.0 L6.0,-12.0"/><path d="M15.0,-12.0 L18.0,-12.0 L21.0,-12.0 L24.0,-12.0"/><path d="M33.0,-12.0 L36.0,-12.0 L39.0,-12.0 L42.0,-12.0"/><path d="M51.0,-12.0 L54.0,-12.0 L57.0,-12.0 L60.0,-12.0"/><path d="M69.0,-12.0 L72.0,-12.0 L75.0,-12.0 L78.0,-12.0"/><path d="M87.0,-12.0 L90.0,-12.0 L93.0,-12.0 L96.0,-12.0"/><path d="M105.0,-12.0 L108.0,-12.0 L111.0,-12.0 L114.0,-12.0"/><path d="M123.0,-12.0 L126.0,-12.0 L129.0,-12.0 L132.0,-12.0"/><path d="M141.0,-12.0 L144.0,-12.0 L147.0,-12.0 L150.0,-12.0"/><path d="M159.0,-12.0 L162.0,-12.0 L165.0,-12.0 L168.0,-12.0"/><path d="M177.0,-12.0 L180.0,-12.0 L183.0,-12.0 L186.0,-12.0"/><path d="M195.0,-12.0 L198.0,-12.0 L201.0,-12.0 L204.0,-12.0"/><path d="M213.0,-12.0 L216.0,-12.0 L219.0,-12.0 L222.0,-12.0"/><path d="M231.0,-12.0 L234.0,-12.0 L237.0,-12.0 L240.0,-12.0"/><path d="M249.0,-12.0 L252.0,-12.0 L255.0,-12.0 L258.0,-12.0"/><path d="M267.0,-12.0 L270.0,-12.0 L273.0,-12.0 L276.0,-12.0"/><path d="M285.0,-12.0 L288.0,-12.0 L291.0,-12.0 L294.0,-12.0"/><path d="M303.0,-12.0 L306.0,-12.0"/><path d="M525.0,1011.0 L528.0,1011.0 L531.0,1011.0 L534.0,1011.0"/><path d="M543.0,1011.0 L546.0,1011.0 L549.0,1011.0 L552.0,1011.0"/><path d="M561.0,1011.0 L564.0,1011.0 L567.0,1011.0 L570.0,1011.0"/><path d="M579.0,1011.0 L582.0,1011.0 L585.0,1011.0 L588.0,1011.0"/><path d="M597.0,1011.0 L600.0,1011.0 L603.0,1011.0 L606.0,1011.0"/><path d="M615.0,1011.0 L618.0,1011.0 L621.0,1011.0 L624.0,1011.0"/><path d="M633.0,1011.0 L636.0,1011.0 L639.0,1011.0 L642.0,1011.0"/><path d="M651.0,1011.0 L654.0,1011.0 L657.0,1011.0 L660.0,1011.0"/><path d="M669.0,1011.0 L672.0,1011.0 L675.0,1011.0 L678.0,1011.0"/><path d="M687.0,1011.0 L690.0,1011.0 L693.0,1011.0 L696.0,1011.0"/><path d="M705.0,1011.0 L708.0,1011.0 L711.0,1011.0 L714.0,1011.0"/><path d="M723.0,1011.0 L726.0,1011.0 L729.0,1011.0 L732.0,1011.0"/><path d="M741.0,1011.0 L744.0,1011.0 L747.0,1011.0 L750.0,1011.0"/><path d="M759.0,1011.0 L762.0,1011.0 L765.0,1011.0 L768.0,1011.0"/><path d="M527.4,1006.3 L526.5,1003.5 L525.5,1000.6 L525.6,997.9"/><path d="M528.0,989.4 L528.0,986.4 L527.8,983.5 L526.9,980.6"/><path d="M525.0,971.9 L525.0,968.9 L525.0,965.9 L525.1,962.9"/><path d="M529.8,957.0 L530.2,955.4 L528.8,952.7 L528.8,951.8"/><path d="M534.5,949.3 L536.3,946.9 L538.1,944.5 L539.9,942.1"/><path d="M548.0,940.0 L550.2,937.8 L552.1,935.6 L553.1,932.8"/><path d="M556.6,924.6 L558.3,922.1 L559.9,919.6 L561.0,916.9"/><path d="M562.1,909.0 L563.7,908.0 L562.7,905.1 L561.8,902.3"/><path d="M558.0,894.6 L558.0,891.6 L556.9,888.9 L555.6,886.2"/><path d="M557.6,878.2 L556.2,875.5 L555.0,872.8 L555.0,869.8"/><path d="M558.2,864.0 L561.0,863.8 L561.0,860.8 L561.2,858.0"/><path d="M567.0,854.8 L566.8,851.9 L564.1,850.6 L561.4,849.2"/><path d="M558.3,840.9 L557.4,838.1 L556.4,835.2 L555.5,832.4"/><path d="M560.3,825.7 L561.5,823.0 L562.2,820.1 L563.0,817.2"/><path d="M560.7,809.7 L558.6,807.6 L558.0,804.8 L558.0,801.8"/><path d="M566.2,801.0 L569.2,801.0 L572.2,801.0 L575.2,801.0"/><path d="M582.3,795.7 L584.6,793.8 L586.9,791.9 L589.2,790.0"/><path d="M596.7,785.5 L599.7,784.9 L602.6,784.3 L605.6,783.7"/><path d="M612.9,779.1 L615.0,777.0 L617.1,779.1 L618.0,780.0"/><path d="M618.0,783.0 L618.0,786.0 L618.0,789.0"/><path d="M618.0,783.0 L618.0,786.0 L618.0,789.0"/><path d="M435.6,197.7 L433.0,199.0 L430.3,200.4 L428.0,202.3"/><path d="M422.6,209.5 L420.8,211.9 L418.6,213.7 L415.9,215.0"/><path d="M407.5,213.8 L404.8,212.7 L403.5,210.0 L402.1,207.3"/><path d="M397.6,199.6 L395.5,197.5 L393.4,195.4 L393.0,192.5"/><path d="M393.0,183.5 L391.2,181.2 L389.6,178.8 L388.7,176.0"/><path d="M384.3,168.3 L384.0,165.5 L384.0,162.5 L384.0,159.5"/><path d="M384.0,150.5 L381.8,148.9 L379.1,147.5 L377.0,145.5"/><path d="M372.0,138.0 L372.0,135.0 L371.1,132.2 L370.1,129.3"/><path d="M369.0,120.5 L369.0,117.5 L366.5,117.0 L366.0,114.5"/><path d="M361.1,113.5 L358.7,112.7 L356.6,110.6 L354.5,108.5"/><path d="M348.1,102.1 L345.2,102.0 L343.2,99.8 L341.3,97.5"/><path d="M335.5,90.6 L333.6,88.3 L331.7,86.0 L330.0,84.0"/><path d="M333.3,79.0 L335.0,76.5 L336.0,75.0"/><path d="M333.8,79.4 L335.1,76.7 L336.0,75.0"/><path d="M336.0,75.0 L336.0,72.0 L336.0,69.0 L336.0,66.0"/><path d="M333.3,57.6 L331.4,55.4 L330.0,53.0 L330.0,50.0"/><path d="M324.1,44.1 L321.6,42.4 L321.0,39.8 L321.0,36.8"/><path d="M321.7,27.9 L322.7,25.0 L323.6,22.2 L323.2,19.4"/><path d="M319.2,11.4 L317.9,8.7 L316.5,6.0 L315.2,3.3"/><path d="M318.0,-4.9 L318.0,-7.9 L318.0,-10.9 L316.3,-11.1"/><path d="M308.2,-10.9 L306.0,-12.0"/><path d="M312.0,-12.0 L315.0,-12.0 L318.0,-12.0 L321.0,-12.0"/><path d="M330.0,-12.0 L333.0,-12.0 L336.0,-12.0 L339.0,-12.0"/><path d="M348.0,-12.0 L351.0,-12.0 L354.0,-12.0 L357.0,-12.0"/><path d="M366.0,-12.0 L369.0,-12.0 L372.0,-12.0 L375.0,-12.0"/><path d="M384.0,-12.0 L387.0,-12.0 L390.0,-12.0 L393.0,-12.0"/><path d="M402.0,-12.0 L405.0,-12.0 L408.0,-12.0 L411.0,-12.0"/><path d="M420.0,-12.0 L423.0,-12.0 L426.0,-12.0 L429.0,-12.0"/><path d="M438.0,-12.0 L441.0,-12.0 L444.0,-12.0 L447.0,-12.0"/><path d="M456.0,-12.0 L459.0,-12.0 L462.0,-12.0 L465.0,-12.0"/><path d="M474.0,-12.0 L477.0,-12.0 L480.0,-12.0 L483.0,-12.0"/><path d="M492.0,-12.0 L495.0,-12.0 L498.0,-12.0 L501.0,-12.0"/><path d="M510.0,-12.0 L513.0,-12.0 L516.0,-12.0 L519.0,-12.0"/><path d="M528.0,-12.0 L531.0,-12.0 L534.0,-12.0 L537.0,-12.0"/><path d="M546.0,-12.0 L549.0,-12.0 L552.0,-12.0 L555.0,-12.0"/><path d="M564.0,-12.0 L567.0,-12.0 L570.0,-12.0 L573.0,-12.0"/><path d="M582.0,-12.0 L585.0,-12.0 L588.0,-12.0 L591.0,-12.0"/><path d="M600.0,-12.0 L603.0,-12.0 L606.0,-12.0 L609.0,-12.0"/><path d="M618.0,-12.0 L621.0,-12.0 L624.0,-12.0 L627.0,-12.0"/><path d="M636.0,-12.0 L639.0,-12.0 L642.0,-12.0 L645.0,-12.0"/><path d="M654.0,-12.0 L657.0,-12.0 L660.0,-12.0 L663.0,-12.0"/><path d="M672.0,-12.0 L675.0,-12.0 L678.0,-12.0 L681.0,-12.0"/><path d="M690.0,-12.0 L693.0,-12.0 L696.0,-12.0 L699.0,-12.0"/><path d="M708.0,-12.0 L711.0,-12.0 L714.0,-12.0 L717.0,-12.0"/><path d="M726.0,-12.0 L729.0,-12.0 L732.0,-12.0 L735.0,-12.0"/><path d="M744.0,-12.0 L747.0,-12.0 L750.0,-12.0 L753.0,-12.0"/><path d="M762.0,-12.0 L765.0,-12.0 L768.0,-12.0 L771.0,-12.0"/><path d="M780.0,-12.0 L783.0,-12.0 L786.0,-12.0 L789.0,-12.0"/><path d="M798.0,-12.0 L801.0,-12.0 L804.0,-12.0 L807.0,-12.0"/><path d="M816.0,-12.0 L819.0,-12.0 L822.0,-12.0 L825.0,-12.0"/><path d="M834.0,-12.0 L837.0,-12.0 L840.0,-12.0 L843.0,-12.0"/><path d="M852.0,-12.0 L855.0,-12.0 L858.0,-12.0 L861.0,-12.0"/><path d="M870.0,-12.0 L873.0,-12.0 L876.0,-12.0 L879.0,-12.0"/><path d="M888.0,-12.0 L891.0,-12.0 L894.0,-12.0 L897.0,-12.0"/><path d="M906.0,-12.0 L909.0,-12.0 L912.0,-12.0 L915.0,-12.0"/><path d="M924.0,-12.0 L927.0,-12.0 L930.0,-12.0 L933.0,-12.0"/><path d="M942.0,-12.0 L945.0,-12.0 L948.0,-12.0 L951.0,-12.0"/><path d="M960.0,-12.0 L963.0,-12.0 L966.0,-12.0"/><path d="M1180.9,-6.3 L1181.8,-3.5 L1184.2,-1.9 L1186.9,-0.5"/><path d="M1194.0,4.1 L1194.0,7.1 L1194.0,10.1 L1194.0,12.0"/><path d="M1173.0,-12.0 L1170.0,-12.0 L1167.0,-12.0 L1164.0,-12.0"/><path d="M1155.0,-12.0 L1152.0,-12.0 L1149.0,-12.0 L1146.0,-12.0"/><path d="M1137.0,-12.0 L1134.0,-12.0 L1131.0,-12.0 L1128.0,-12.0"/><path d="M1119.0,-12.0 L1116.0,-12.0 L1113.0,-12.0 L1110.0,-12.0"/><path d="M1101.0,-12.0 L1098.0,-12.0 L1095.0,-12.0 L1092.0,-12.0"/><path d="M1083.0,-12.0 L1080.0,-12.0 L1077.0,-12.0 L1074.0,-12.0"/><path d="M1065.0,-12.0 L1062.0,-12.0 L1059.0,-12.0 L1056.0,-12.0"/><path d="M1047.0,-12.0 L1044.0,-12.0 L1041.0,-12.0 L1038.0,-12.0"/><path d="M1029.0,-12.0 L1026.0,-12.0 L1023.0,-12.0 L1020.0,-12.0"/><path d="M1011.0,-12.0 L1008.0,-12.0 L1005.0,-12.0 L1002.0,-12.0"/><path d="M993.0,-12.0 L990.0,-12.0 L987.0,-12.0 L984.0,-12.0"/><path d="M975.0,-12.0 L972.0,-12.0 L969.0,-12.0 L966.0,-12.0"/><path d="M1197.6,16.8 L1199.4,19.2 L1201.2,21.6 L1203.0,24.0"/><path d="M1205.2,32.7 L1205.9,35.6 L1206.0,36.0"/><path d="M1195.5,14.6 L1197.1,17.1 L1198.6,19.7 L1200.2,22.3"/><path d="M1204.1,30.3 L1205.1,33.2 L1206.0,36.0"/><path d="M1204.7,38.7 L1203.3,41.4 L1204.0,44.0 L1205.4,46.7"/><path d="M1211.4,53.4 L1211.1,55.9 L1209.7,58.6 L1209.0,61.4"/><path d="M1210.0,70.0 L1212.0,72.0"/><path d="M1211.1,74.8 L1210.1,77.7 L1209.2,80.5 L1209.0,83.5"/><path d="M1209.7,92.4 L1210.5,95.3 L1211.3,98.2 L1212.2,101.1"/><path d="M1214.6,109.7 L1215.0,111.0"/><path d="M1211.3,74.9 L1210.5,77.8 L1209.8,80.7 L1209.1,83.6"/><path d="M1210.9,92.4 L1211.5,95.4 L1212.2,98.3 L1212.8,101.2"/><path d="M1214.8,110.0 L1215.0,111.0"/><path d="M1216.3,113.7 L1217.7,116.4 L1218.0,119.3 L1218.0,122.3"/><path d="M1222.1,129.9 L1222.9,132.8 L1223.8,135.7 L1224.6,138.5"/><path d="M1227.1,146.9 L1229.3,144.7 L1231.4,142.6 L1233.5,140.5"/><path d="M1241.5,138.0 L1242.0,138.0"/><path d="M1243.7,135.5 L1245.3,133.0 L1247.0,130.5 L1249.2,129.0"/><path d="M1258.2,129.0 L1260.0,129.0"/><path d="M1244.1,135.9 L1246.2,133.8 L1248.5,131.8 L1251.1,130.4"/><path d="M1259.8,129.0 L1260.0,129.0"/><path d="M1261.5,134.8 L1262.2,137.7 L1262.9,140.6 L1265.4,142.2"/><path d="M1273.9,144.0 L1275.3,145.9 L1275.8,148.9 L1276.3,151.8"/><path d="M1277.8,160.7 L1279.5,162.7 L1282.2,164.1 L1283.6,165.9"/><path d="M1281.8,174.2 L1282.5,177.1 L1283.2,180.0 L1284.0,182.9"/><path d="M1292.9,183.0 L1295.9,183.0 L1298.9,183.0 L1299.0,183.0"/><path d="M1302.6,187.8 L1304.4,190.2 L1306.2,192.6 L1308.0,195.0"/><path d="M1299.0,183.0 L1300.3,185.7 L1301.7,188.4 L1304.3,189.0"/><path d="M1305.9,197.1 L1305.0,199.8 L1304.4,202.7 L1303.5,205.5"/><path d="M1303.9,213.8 L1304.9,216.5 L1304.1,219.5 L1303.4,222.4"/><path d="M1302.0,231.2 L1302.0,234.2 L1302.0,237.2 L1301.4,240.1"/><path d="M1299.6,249.0 L1299.0,251.9 L1299.0,252.0"/><path d="M1304.7,253.9 L1307.5,254.8 L1306.6,257.1 L1304.9,259.6"/><path d="M1303.9,267.2 L1305.4,269.7 L1307.0,272.3 L1308.5,274.9"/><path d="M1315.1,279.5 L1317.8,280.9 L1320.5,282.0 L1323.5,282.0"/><path d="M1331.4,285.6 L1333.9,287.3 L1336.7,288.0 L1339.2,286.8"/><path d="M1347.1,287.0 L1350.0,288.0 L1352.9,287.3 L1355.8,286.6"/><path d="M1364.6,285.0 L1366.2,287.3 L1367.5,290.0 L1369.5,292.1"/><path d="M1376.8,297.3 L1379.3,299.1 L1381.7,300.8 L1384.2,302.6"/><path d="M1392.1,306.0 L1395.1,306.0 L1398.1,306.0 L1401.1,306.0"/><path d="M1409.2,302.3 L1412.1,301.3 L1414.9,300.4 L1415.4,298.2"/><path d="M1414.0,290.0 L1416.1,287.9 L1418.2,285.8 L1420.3,283.7"/><path d="M1425.3,278.4 L1426.6,275.7 L1428.0,273.0 L1428.0,270.1"/><path d="M1423.1,263.7 L1420.6,262.0 L1418.5,260.0 L1417.2,257.3"/><path d="M1420.9,253.0 L1423.6,254.3 L1426.0,254.0 L1428.2,252.2"/><path d="M1434.7,257.8 L1437.6,256.8 L1440.4,255.9 L1443.2,254.8"/><path d="M1449.8,249.0 L1452.8,249.0 L1455.8,249.0 L1458.3,249.7"/><path d="M1461.8,258.0 L1463.0,260.7 L1464.2,263.5 L1465.4,266.3"/><path d="M1471.4,272.2 L1473.0,271.8 L1473.5,268.9 L1474.9,266.2"/><path d="M1482.3,262.4 L1485.2,261.7 L1488.1,260.9 L1490.2,258.8"/><path d="M1497.3,256.6 L1500.0,258.0 L1502.6,256.7 L1505.3,255.3"/><path d="M1514.0,257.0 L1516.9,257.7 L1519.0,256.4 L1520.7,254.0"/><path d="M1526.5,250.7 L1529.0,252.4 L1531.5,254.0 L1533.0,255.0"/><path d="M1293.6,254.7 L1293.0,257.3 L1290.7,258.0 L1287.7,258.0"/><path d="M1280.0,261.0 L1277.3,261.7 L1275.1,263.9 L1275.0,264.0"/><path d="M1533.0,255.0 L1535.7,253.7 L1538.4,252.3 L1539.6,254.2"/><path d="M1541.7,263.0 L1542.0,264.0"/><path d="M1533.0,255.0 L1536.0,255.0 L1539.0,255.0 L1539.9,257.8"/><path d="M748.2,876.6 L745.8,878.4 L743.4,880.2 L741.0,882.0"/><path d="M739.2,890.8 L738.6,893.8 L738.1,896.7 L738.0,897.0"/><path d="M747.6,875.7 L745.7,877.9 L744.1,880.4 L742.4,882.9"/><path d="M739.4,891.3 L738.7,894.2 L738.0,897.0"/><path d="M738.0,897.0 L735.9,899.1 L733.8,901.2 L732.3,903.4"/><path d="M737.7,910.6 L739.5,913.0 L741.5,915.2 L744.3,916.1"/><path d="M750.0,921.0 L752.1,923.1 L754.3,925.3 L755.8,927.5"/><path d="M753.0,936.0 L755.2,938.2 L756.2,940.8 L756.6,943.8"/><path d="M757.7,952.7 L758.1,955.7 L758.5,958.7 L758.8,961.6"/><path d="M757.2,970.4 L756.4,973.3 L756.2,976.2 L756.7,979.2"/><path d="M758.2,988.1 L758.7,991.0 L759.6,993.8 L761.5,996.1"/><path d="M767.1,1003.2 L769.0,1005.5 L770.9,1007.8 L773.8,1008.0"/><path d="M780.0,1011.0 L783.0,1011.0 L786.0,1011.0 L789.0,1011.0"/><path d="M798.0,1011.0 L801.0,1011.0 L804.0,1011.0 L807.0,1011.0"/><path d="M816.0,1011.0 L819.0,1011.0 L822.0,1011.0 L825.0,1011.0"/><path d="M834.0,1011.0 L837.0,1011.0 L840.0,1011.0 L843.0,1011.0"/><path d="M852.0,1011.0 L855.0,1011.0 L858.0,1011.0 L861.0,1011.0"/><path d="M870.0,1011.0 L873.0,1011.0 L876.0,1011.0 L879.0,1011.0"/><path d="M888.0,1011.0 L891.0,1011.0 L894.0,1011.0 L897.0,1011.0"/><path d="M906.0,1011.0 L909.0,1011.0 L912.0,1011.0 L915.0,1011.0"/><path d="M924.0,1011.0 L927.0,1011.0 L930.0,1011.0 L933.0,1011.0"/><path d="M942.0,1011.0 L945.0,1011.0 L948.0,1011.0 L951.0,1011.0"/><path d="M960.0,1011.0 L963.0,1011.0 L966.0,1011.0 L969.0,1011.0"/><path d="M978.0,1011.0 L981.0,1011.0 L984.0,1011.0 L987.0,1011.0"/><path d="M996.0,1011.0 L999.0,1011.0 L1002.0,1011.0 L1005.0,1011.0"/><path d="M1014.0,1011.0 L1017.0,1011.0 L1020.0,1011.0 L1023.0,1011.0"/><path d="M1032.0,1011.0 L1035.0,1011.0 L1038.0,1011.0 L1041.0,1011.0"/><path d="M1050.0,1011.0 L1053.0,1011.0 L1056.0,1011.0 L1059.0,1011.0"/><path d="M1068.0,1011.0 L1071.0,1011.0 L1074.0,1011.0"/><path d="M1074.0,1011.0 L1077.0,1011.0 L1080.0,1011.0 L1083.0,1011.0"/><path d="M1092.0,1011.0 L1095.0,1011.0 L1098.0,1011.0 L1101.0,1011.0"/><path d="M1110.0,1011.0 L1113.0,1011.0 L1116.0,1011.0 L1119.0,1011.0"/><path d="M1128.0,1011.0 L1131.0,1011.0 L1134.0,1011.0 L1137.0,1011.0"/><path d="M1146.0,1011.0 L1149.0,1011.0 L1152.0,1011.0 L1155.0,1011.0"/><path d="M1164.0,1011.0 L1167.0,1011.0 L1170.0,1011.0 L1173.0,1011.0"/><path d="M1182.0,1011.0 L1185.0,1011.0 L1188.0,1011.0 L1191.0,1011.0"/><path d="M1200.0,1011.0 L1203.0,1011.0 L1206.0,1011.0 L1209.0,1011.0"/><path d="M1218.0,1011.0 L1221.0,1011.0 L1224.0,1011.0 L1227.0,1011.0"/><path d="M1236.0,1011.0 L1239.0,1011.0 L1242.0,1011.0 L1245.0,1011.0"/><path d="M1254.0,1011.0 L1257.0,1011.0 L1260.0,1011.0 L1263.0,1011.0"/><path d="M1272.0,1011.0 L1275.0,1011.0 L1278.0,1011.0 L1281.0,1011.0"/><path d="M1290.0,1011.0 L1293.0,1011.0 L1296.0,1011.0 L1299.0,1011.0"/><path d="M1308.0,1011.0 L1311.0,1011.0 L1314.0,1011.0 L1317.0,1011.0"/><path d="M1326.0,1011.0 L1329.0,1011.0 L1332.0,1011.0 L1335.0,1011.0"/><path d="M1344.0,1011.0 L1347.0,1011.0 L1350.0,1011.0 L1353.0,1011.0"/><path d="M1362.0,1011.0 L1365.0,1011.0 L1368.0,1011.0 L1371.0,1011.0"/><path d="M1380.0,1011.0 L1383.0,1011.0 L1386.0,1011.0 L1389.0,1011.0"/><path d="M1398.0,1011.0 L1401.0,1011.0 L1404.0,1011.0 L1407.0,1011.0"/><path d="M1416.0,1011.0 L1419.0,1011.0 L1422.0,1011.0 L1425.0,1011.0"/><path d="M1434.0,1011.0 L1437.0,1011.0 L1440.0,1011.0 L1443.0,1011.0"/><path d="M1452.0,1011.0 L1455.0,1011.0 L1458.0,1011.0 L1461.0,1011.0"/><path d="M1470.0,1011.0 L1473.0,1011.0 L1476.0,1011.0 L1479.0,1011.0"/><path d="M1488.0,1011.0 L1491.0,1011.0 L1494.0,1011.0 L1497.0,1011.0"/><path d="M1506.0,1011.0 L1509.0,1011.0 L1512.0,1011.0 L1515.0,1011.0"/><path d="M963.3,-6.6 L964.6,-4.4 L965.1,-2.5 L962.4,-1.2"/><path d="M953.8,0.3 L952.5,3.0 L951.2,5.7 L948.4,6.0"/><path d="M945.0,11.6 L943.1,13.9 L941.8,16.4 L941.3,19.3"/><path d="M939.8,28.2 L939.3,31.2 L939.4,34.1 L940.3,36.9"/><path d="M942.0,45.7 L942.0,48.7 L942.0,51.7 L941.7,54.6"/><path d="M936.5,61.6 L934.1,63.3 L931.6,65.0 L930.0,67.1"/><path d="M929.9,76.1 L929.5,79.1 L929.1,82.1 L928.7,85.1"/><path d="M927.6,94.0 L927.3,97.0 L927.3,99.9 L928.4,102.7"/><path d="M931.5,111.1 L932.6,113.9 L933.7,116.7 L934.7,119.5"/><path d="M938.6,127.6 L940.0,130.3 L941.5,132.9 L943.0,135.5"/><path d="M947.3,143.4 L948.8,146.0 L950.2,148.6 L952.0,151.0"/><path d="M958.4,157.4 L960.5,159.5 L962.6,161.6 L963.0,162.0"/><path d="M958.2,165.0 L955.2,165.0 L954.0,165.0"/><path d="M957.3,163.9 L954.5,164.8 L954.0,165.0"/><path d="M954.0,165.0 L954.0,168.0 L954.0,171.0 L954.0,174.0"/><path d="M954.0,183.0 L954.5,186.0 L955.0,188.9 L955.5,191.9"/><path d="M957.0,200.8 L957.0,201.0"/><path d="M1202.6,258.8 L1205.4,257.7 L1208.1,256.5 L1210.9,255.4"/><path d="M1219.3,252.1 L1222.1,251.0 L1224.9,249.9 L1227.5,249.5"/><path d="M1233.9,255.9 L1236.0,258.0 L1236.0,258.0"/><path d="M1236.0,258.0 L1237.5,255.4 L1239.1,252.9 L1240.6,250.3"/><path d="M1236.0,258.0 L1238.1,255.9 L1240.2,253.8 L1242.2,251.5"/><path d="M1246.9,245.3 L1248.7,247.7 L1250.6,250.0 L1252.5,252.4"/><path d="M1258.3,259.3 L1260.0,261.0"/><path d="M1260.0,261.0 L1262.9,261.6 L1265.9,262.2 L1268.8,262.8"/><path d="M1260.0,261.0 L1263.0,261.0 L1266.0,261.0 L1268.1,263.1"/><path d="M1611.0,405.0 L1611.0,408.0 L1611.0,411.0 L1611.0,414.0"/><path d="M1611.0,423.0 L1611.0,426.0 L1611.0,429.0 L1611.0,432.0"/><path d="M1611.0,441.0 L1611.0,444.0 L1611.0,447.0 L1611.0,450.0"/><path d="M1611.0,459.0 L1611.0,462.0 L1611.0,465.0 L1611.0,468.0"/><path d="M1611.0,477.0 L1611.0,480.0 L1611.0,483.0 L1611.0,486.0"/><path d="M1611.0,495.0 L1611.0,498.0 L1611.0,501.0 L1611.0,504.0"/><path d="M1611.0,513.0 L1611.0,516.0 L1611.0,519.0 L1611.0,522.0"/><path d="M1611.0,531.0 L1611.0,534.0 L1611.0,537.0 L1611.0,540.0"/><path d="M1611.0,549.0 L1611.0,552.0 L1611.0,555.0 L1611.0,558.0"/><path d="M1611.0,567.0 L1611.0,570.0 L1611.0,573.0 L1611.0,576.0"/><path d="M1611.0,585.0 L1611.0,588.0 L1611.0,591.0 L1611.0,594.0"/><path d="M1611.0,603.0 L1611.0,606.0 L1611.0,609.0 L1611.0,612.0"/><path d="M1611.0,621.0 L1611.0,624.0 L1611.0,627.0 L1611.0,630.0"/><path d="M1611.0,639.0 L1611.0,642.0 L1611.0,645.0 L1611.0,648.0"/><path d="M1611.0,657.0 L1611.0,660.0 L1611.0,663.0 L1611.0,666.0"/><path d="M1611.0,675.0 L1611.0,678.0 L1611.0,681.0 L1611.0,684.0"/><path d="M1611.0,693.0 L1611.0,696.0 L1611.0,699.0 L1611.0,702.0"/><path d="M1611.0,711.0 L1611.0,714.0 L1611.0,717.0 L1611.0,720.0"/><path d="M1611.0,729.0 L1611.0,732.0 L1611.0,735.0 L1611.0,738.0"/><path d="M1611.0,747.0 L1611.0,750.0 L1611.0,753.0 L1611.0,756.0"/><path d="M1611.0,765.0 L1611.0,768.0 L1611.0,771.0 L1611.0,774.0"/><path d="M1611.0,783.0 L1611.0,786.0 L1611.0,789.0 L1611.0,792.0"/><path d="M1611.0,801.0 L1611.0,804.0 L1611.0,807.0 L1611.0,810.0"/><path d="M1611.0,819.0 L1611.0,822.0 L1611.0,825.0 L1611.0,828.0"/><path d="M1611.0,837.0 L1611.0,840.0 L1611.0,843.0 L1611.0,846.0"/><path d="M1611.0,855.0 L1611.0,858.0 L1611.0,861.0 L1611.0,864.0"/><path d="M1611.0,873.0 L1611.0,876.0 L1611.0,879.0 L1611.0,882.0"/><path d="M1611.0,891.0 L1611.0,894.0 L1611.0,897.0 L1611.0,900.0"/><path d="M1611.0,909.0 L1611.0,912.0 L1611.0,915.0 L1611.0,918.0"/><path d="M1611.0,927.0 L1611.0,930.0 L1611.0,933.0 L1611.0,936.0"/><path d="M1611.0,945.0 L1611.0,948.0 L1611.0,951.0 L1611.0,954.0"/><path d="M1611.0,963.0 L1611.0,966.0 L1611.0,969.0 L1611.0,972.0"/><path d="M1611.0,981.0 L1611.0,984.0 L1611.0,987.0 L1611.0,990.0"/><path d="M1608.9,998.1 L1607.2,1000.6 L1605.9,1003.3 L1604.0,1005.0"/><path d="M1597.0,1010.0 L1594.4,1011.0 L1591.4,1011.0 L1588.4,1011.0"/><path d="M1579.4,1011.0 L1576.4,1011.0 L1575.0,1011.0"/><path d="M1611.0,402.0 L1611.0,405.0 L1608.9,407.1 L1606.4,408.8"/><path d="M1604.9,413.9 L1602.5,415.3 L1599.8,416.6 L1599.0,419.1"/><path d="M1595.2,426.4 L1592.6,427.7 L1589.9,429.1 L1587.2,430.4"/><path d="M1586.3,436.0 L1584.7,438.5 L1583.0,441.0 L1581.3,443.5"/><path d="M1573.5,441.7 L1570.8,443.1 L1568.1,443.8 L1565.1,443.2"/><path d="M1556.3,441.5 L1553.8,441.6 L1552.8,444.5 L1551.9,447.3"/><path d="M1545.1,450.2 L1546.0,453.0 L1547.0,455.9 L1547.9,458.7"/><path d="M1543.6,464.5 L1542.9,467.4 L1542.2,470.3 L1540.8,473.0"/><path d="M1536.2,480.7 L1534.6,483.3 L1533.1,485.9 L1535.0,488.0"/><path d="M1532.3,495.5 L1529.8,497.2 L1527.3,498.8 L1524.8,500.5"/><path d="M1530.6,505.2 L1531.9,507.9 L1533.3,510.6 L1534.6,513.3"/><path d="M1537.3,521.6 L1538.7,524.3 L1539.0,527.2 L1539.0,530.2"/><path d="M1539.7,539.1 L1540.7,542.0 L1541.6,544.8 L1543.2,547.2"/><path d="M1546.3,555.4 L1546.9,558.3 L1547.5,561.3 L1548.1,564.1"/><path d="M1548.8,571.4 L1548.9,573.9 L1551.0,576.0 L1553.1,578.1"/><path d="M1549.7,585.5 L1548.0,588.0 L1550.1,590.1 L1552.2,592.2"/><path d="M1552.0,600.1 L1551.0,603.0 L1551.0,606.0 L1548.1,606.7"/><path d="M1539.4,608.9 L1537.8,611.3 L1536.5,614.0 L1535.1,616.7"/><path d="M1534.9,624.8 L1535.7,627.3 L1533.5,629.5 L1534.6,631.6"/><path d="M1537.8,638.5 L1536.4,641.1 L1537.4,643.4 L1539.0,645.8"/><path d="M1536.3,653.7 L1534.2,655.8 L1532.1,657.9 L1530.0,660.1"/><path d="M1524.8,665.2 L1522.7,667.3 L1520.4,669.0 L1517.4,669.0"/><path d="M1512.0,674.4 L1512.0,677.4 L1513.1,680.1 L1514.4,682.8"/><path d="M1515.0,691.6 L1515.0,694.6 L1516.2,697.2 L1518.3,699.3"/><path d="M1524.0,704.1 L1524.9,702.0 L1527.9,702.0 L1530.9,702.0"/><path d="M1538.8,705.8 L1541.2,707.5 L1544.0,707.5 L1546.9,706.8"/><path d="M1555.5,705.8 L1558.2,707.1 L1560.3,709.0 L1561.3,711.8"/><path d="M1562.1,720.4 L1561.4,723.3 L1560.7,726.2 L1560.0,729.2"/><path d="M1557.8,737.9 L1557.0,740.8 L1559.7,741.9 L1562.5,742.8"/><path d="M1569.8,747.8 L1571.9,749.9 L1572.0,752.8 L1572.0,755.8"/><path d="M1574.0,764.0 L1576.1,766.1 L1578.2,768.3 L1579.5,771.0"/><path d="M1583.5,779.0 L1585.4,781.4 L1587.5,783.5 L1589.6,785.6"/><path d="M1591.7,794.3 L1592.2,797.2 L1592.8,800.2 L1593.0,803.1"/><path d="M1586.5,806.1 L1585.8,809.0 L1585.0,811.9 L1584.3,814.8"/><path d="M1580.5,822.9 L1579.2,825.6 L1578.0,828.4 L1578.0,831.4"/><path d="M1575.6,834.6 L1573.5,835.5 L1571.2,837.4 L1568.5,838.7"/><path d="M1568.8,844.4 L1571.5,845.8 L1570.9,848.2 L1569.6,850.9"/><path d="M1571.6,858.9 L1573.3,861.4 L1575.0,863.9 L1575.5,866.9"/><path d="M1577.0,875.8 L1577.5,878.7 L1577.9,881.7 L1580.7,882.0"/><path d="M1588.4,885.0 L1591.4,885.0 L1594.0,886.0 L1595.9,888.2"/><path d="M1593.1,896.7 L1592.1,899.6 L1591.2,902.4 L1590.2,905.3"/><path d="M1590.0,914.2 L1590.0,917.2 L1588.4,919.6 L1586.8,921.9"/><path d="M1584.6,930.7 L1583.6,933.4 L1581.4,935.6 L1580.3,938.2"/><path d="M1578.8,946.7 L1580.2,949.4 L1581.0,952.2 L1581.0,955.2"/><path d="M1580.2,963.8 L1578.1,965.9 L1575.9,968.1 L1576.2,970.2"/><path d="M1580.0,978.1 L1581.0,981.0 L1579.7,983.6 L1578.3,986.3"/><path d="M1575.0,992.2 L1575.0,995.2 L1575.0,998.2 L1575.0,1001.2"/><path d="M1575.0,1010.2 L1575.0,1011.0"/><path d="M1569.0,1011.0 L1566.0,1011.0 L1563.0,1011.0 L1560.0,1011.0"/><path d="M1551.0,1011.0 L1548.0,1011.0 L1545.0,1011.0 L1542.0,1011.0"/><path d="M1533.0,1011.0 L1530.0,1011.0 L1527.0,1011.0 L1524.0,1011.0"/><path d="M1257.0,750.0 L1254.9,752.1 L1252.2,753.0 L1251.8,754.6"/><path d="M1257.6,760.8 L1260.2,762.3 L1261.7,764.9 L1263.3,767.4"/><path d="M1267.9,775.2 L1269.8,777.3 L1272.7,778.2 L1275.5,779.2"/><path d="M1284.3,780.7 L1287.3,781.0 L1290.3,781.4 L1293.3,781.7"/><path d="M1302.2,782.7 L1305.2,783.1 L1308.0,784.0 L1310.9,785.0"/><path d="M1319.4,787.8 L1322.3,788.8 L1323.0,791.2 L1323.0,794.2"/><path d="M1327.0,800.1 L1327.6,803.1 L1328.2,806.0 L1328.8,808.9"/><path d="M1336.9,810.0 L1339.4,811.4 L1341.5,813.5 L1343.6,815.6"/><path d="M1351.2,819.0 L1354.2,819.0 L1357.2,819.0 L1360.0,818.3"/><path d="M1367.5,813.3 L1370.4,813.0 L1373.4,813.0 L1376.4,813.0"/><path d="M1384.5,809.3 L1387.2,807.9 L1390.0,807.0 L1393.0,807.0"/><path d="M1397.2,800.4 L1398.5,798.0 L1401.5,798.0 L1404.4,798.2"/><path d="M1412.7,801.7 L1415.5,802.9 L1418.2,804.1 L1421.0,805.3"/><path d="M1428.9,805.6 L1430.6,803.1 L1432.2,800.7 L1433.9,798.2"/><path d="M1442.2,800.6 L1444.9,801.9 L1447.6,803.3 L1450.2,804.6"/><path d="M1458.3,808.6 L1461.0,810.0 L1461.0,813.0 L1461.0,816.0"/><path d="M1458.8,824.7 L1458.1,827.6 L1460.6,828.0 L1463.6,828.0"/><path d="M1468.9,834.0 L1471.9,834.0 L1473.7,835.8 L1474.8,838.6"/><path d="M1478.2,846.9 L1478.5,849.5 L1476.4,851.6 L1476.0,854.5"/><path d="M1471.9,860.2 L1470.5,862.9 L1471.3,865.3 L1473.4,867.4"/><path d="M1473.6,874.7 L1472.3,877.4 L1470.9,880.1 L1470.8,882.3"/><path d="M1479.0,885.4 L1479.0,888.4 L1479.4,891.2 L1482.0,892.5"/><path d="M1490.1,896.5 L1489.6,898.4 L1488.4,900.6 L1490.1,903.1"/><path d="M1492.6,910.4 L1490.5,912.5 L1488.4,914.6 L1489.7,916.7"/><path d="M1488.5,924.2 L1491.3,925.1 L1494.2,926.1 L1497.0,927.0"/><path d="M1495.1,934.3 L1497.1,936.6 L1499.1,938.9 L1501.0,941.2"/><path d="M1506.9,948.0 L1508.8,950.3 L1510.8,952.6 L1511.5,955.0"/><path d="M1507.5,963.0 L1506.1,965.7 L1506.0,968.7 L1506.0,971.7"/><path d="M1506.0,980.7 L1504.1,982.9 L1503.8,985.2 L1505.5,987.7"/><path d="M1510.2,995.4 L1511.5,998.0 L1513.5,1000.2 L1515.9,1002.0"/><path d="M1523.1,1007.4 L1524.0,1009.9 L1524.0,1011.0"/></g></svg>