<?xml version="1.0" encoding="UTF-8"?>
<svg id="Layer_1" data-name="Layer 1" xmlns="http://www.w3.org/2000/svg" viewBox="0 0 128 128">
  <defs>
    <style>
      .cls-1 {
        fill: #00731b;
      }
    </style>
  </defs>
  <path class="cls-1" d="M92.85,62.03c2,.7,2.55.97,2.55,2.47v29c0,1.5-1.2,2.7-3.2,3.4l-65.7,24.2s7-11.6,7-28.5l32.9-10.6c1.7-.4,2.8-1.6,2.8-2.9s-1.1-2.5-2.7-2.9l-33.1-10.8"/>
  <path class="cls-1" d="M34.44,65.74c-2-.7-1.75-.51-1.84-2.59v-28.65c0-1.5,1.2-2.7,3.2-3.4L101.5,6.9s-7,11.6-7,28.5l-32.9,10.6c-1.7.4-2.8,1.6-2.8,2.9s1.1,2.5,2.7,2.9l33.1,10.8"/>
</svg>